<?xml version="1.0" standalone="no"?>
<!DOCTYPE svg PUBLIC "-//W3C//DTD SVG 1.1//EN" "http://www.w3.org/Graphics/SVG/1.1/DTD/svg11.dtd" >
<svg>
<metadata>
Created by FontForge 20090622 at Fri Jan 22 23:36:54 2016
 By www
Copyright 1990-1993 Bitstream Inc.  All rights reserved.
</metadata>
<defs>
<font id="Geometric415BT-BlackItalicA" horiz-adv-x="1024" >
  <font-face 
    font-family="Geometr415 Blk BT"
    font-weight="400"
    font-style="italic"
    font-stretch="normal"
    units-per-em="2048"
    panose-1="2 11 8 2 2 2 3 9 3 3"
    ascent="1638"
    descent="-410"
    x-height="901"
    cap-height="1450"
    bbox="-342 -483 2396 1972"
    underline-thickness="209"
    underline-position="-113"
    slope="-10"
    unicode-range="U+0020-U+F002"
  />
<missing-glyph horiz-adv-x="1229" 
d="M102 -362v1806h1024v-1806h-1024zM217 -248h795v1577h-795v-1577z" />
    <glyph glyph-name=".notdef" horiz-adv-x="1229" 
d="M102 -362v1806h1024v-1806h-1024zM217 -248h795v1577h-795v-1577z" />
    <glyph glyph-name=".null" horiz-adv-x="0" 
 />
    <glyph glyph-name="nonmarkingreturn" horiz-adv-x="590" 
 />
    <glyph glyph-name="space" unicode=" " horiz-adv-x="590" 
 />
    <glyph glyph-name="exclam" unicode="!" horiz-adv-x="649" 
d="M174 426l82 934l424 137l-328 -1012zM47 145q0 70 50 120t120 50q72 0 121 -48.5t49 -121.5q0 -70 -49.5 -120t-120.5 -50q-68 0 -119 51t-51 119z" />
    <glyph glyph-name="quotedbl" unicode="&#x22;" horiz-adv-x="678" 
d="M406 1438h192v-559h-192v559zM80 1438h192v-559h-192v559z" />
    <glyph glyph-name="numbersign" unicode="#" horiz-adv-x="1575" 
d="M709 848l-88 -244h251l86 244h-249zM709 1464h221l-146 -415h242l148 415h221l-148 -415h283l-74 -201h-280l-84 -242h290l-71 -200h-291l-148 -416h-221l148 416h-244l-149 -416h-220l146 416h-287l76 200h282l86 242h-299l74 201h297z" />
    <glyph glyph-name="dollar" unicode="$" horiz-adv-x="1180" 
d="M610 1218q-73 -4 -114 -39t-41 -94q0 -42 26.5 -78t81.5 -67zM559 250q74 21 116 66.5t42 105.5q0 42 -24.5 81t-74.5 77zM517 2l-50 -285h-121l51 291q-73 5 -151 26t-170 62l51 269q66 -50 142.5 -79t168.5 -40l72 407l-90 60q-134 89 -189 168t-55 178
q0 168 130 279.5t333 111.5h14l31 184h121l-33 -192q65 -12 133 -37.5t144 -67.5l-99 -223q-58 37 -111 58.5t-110 33.5l-59 -336l96 -61q122 -79 178.5 -164.5t56.5 -189.5q0 -190 -136.5 -319t-347.5 -134z" />
    <glyph glyph-name="percent" unicode="%" horiz-adv-x="1593" 
d="M1030 319q0 -65 47 -113t111 -48t112 47.5t48 113.5q0 67 -47.5 115.5t-112.5 48.5q-64 0 -111 -48.5t-47 -115.5zM819 322q0 152 108.5 260t260.5 108q153 0 260.5 -107.5t107.5 -260.5t-107.5 -261t-260.5 -108q-152 0 -260.5 108t-108.5 261zM1182 1497h153
l-923 -1544h-156zM244 1128q0 -65 48 -113t111 -48q65 0 111.5 47.5t46.5 113.5q0 68 -46.5 116t-111.5 48q-64 0 -111.5 -48.5t-47.5 -115.5zM35 1128q0 153 108 261t260 108q154 0 261.5 -107.5t107.5 -261.5q0 -152 -108 -259t-261 -107q-152 0 -260 107t-108 259z" />
    <glyph glyph-name="ampersand" unicode="&#x26;" horiz-adv-x="1456" 
d="M692 987q103 41 149 84t46 96q0 50 -36.5 80.5t-94.5 30.5t-95.5 -34t-37.5 -87q0 -39 16 -79t53 -91zM795 324l-226 335q-116 -53 -168.5 -108.5t-52.5 -124.5q0 -75 60.5 -125.5t152.5 -50.5q55 0 114 18.5t120 55.5zM963 78q-95 -61 -205 -93t-226 -32
q-223 0 -364 124.5t-141 317.5q0 158 99.5 274.5t303.5 196.5q-52 81 -76 147t-24 130q0 153 116.5 253.5t298.5 100.5q184 0 295 -89.5t111 -236.5q0 -118 -77 -211t-245 -176l191 -284q38 40 65.5 87t40.5 97l271 -106q-37 -107 -87.5 -187.5t-117.5 -140.5l168 -250h-344
z" />
    <glyph glyph-name="quotesingle" unicode="'" horiz-adv-x="352" 
d="M80 1438h192v-559h-192v559z" />
    <glyph glyph-name="parenleft" unicode="(" horiz-adv-x="707" 
d="M461 -301h-256q-60 161 -90.5 326t-30.5 327q0 307 109.5 589t316.5 509h256q-215 -255 -322.5 -533t-107.5 -579q0 -165 30.5 -322.5t94.5 -316.5z" />
    <glyph glyph-name="parenright" unicode=")" horiz-adv-x="707" 
d="M207 1450h256q60 -161 90.5 -326t30.5 -327q0 -307 -109.5 -589t-316.5 -509h-256q215 255 322.5 533t107.5 579q0 165 -31 322.5t-94 316.5z" />
    <glyph glyph-name="asterisk" unicode="*" horiz-adv-x="1042" 
d="M563 991l-157 -325l-183 131l262 252l-356 49l68 213l317 -170l-61 356h221l-62 -356l318 172l67 -215l-356 -49l262 -252l-182 -131z" />
    <glyph glyph-name="plus" unicode="+" horiz-adv-x="1706" 
d="M752 1221h202v-510h498v-199h-498v-512h-202v512h-498v199h498v510z" />
    <glyph glyph-name="comma" unicode="," horiz-adv-x="590" 
d="M-76 -309l215 561h283l-248 -561h-250z" />
    <glyph glyph-name="hyphen" unicode="-" horiz-adv-x="702" 
d="M12 313l49 275h529l-47 -275h-531z" />
    <glyph glyph-name="period" unicode="." horiz-adv-x="590" 
d="M41 145q0 70 50 120t120 50q72 0 121 -48.5t49 -121.5q0 -70 -49.5 -120t-120.5 -50q-69 0 -119.5 51t-50.5 119z" />
    <glyph glyph-name="slash" unicode="/" horiz-adv-x="616" 
d="M670 1497l-541 -1687h-149l540 1687h150z" />
    <glyph glyph-name="zero" unicode="0" horiz-adv-x="1180" 
d="M395 518q0 -123 35 -188.5t100 -65.5q50 0 93.5 43.5t76.5 126.5q45 113 70 241.5t25 242.5q0 133 -32.5 200.5t-96.5 67.5q-104 0 -187.5 -200t-83.5 -468zM504 -47q-209 0 -328 157t-119 435q0 183 47.5 359t133.5 313q85 135 201 207.5t247 72.5q210 0 327 -158.5
t117 -441.5q0 -175 -44 -345.5t-123 -303.5q-86 -142 -205 -218.5t-254 -76.5z" />
    <glyph glyph-name="one" unicode="1" horiz-adv-x="1180" 
d="M647 0h-319l209 1186h-240l47 264h559z" />
    <glyph glyph-name="two" unicode="2" horiz-adv-x="1180" 
d="M47 131l526 559q86 92 133.5 179.5t47.5 154.5q0 75 -49.5 123.5t-126.5 48.5q-86 0 -140.5 -55t-81.5 -166l-245 201q101 168 222.5 244.5t287.5 76.5q203 0 333.5 -123.5t130.5 -314.5q0 -137 -81 -282t-398 -492h445l-74 -285h-950z" />
    <glyph glyph-name="three" unicode="3" horiz-adv-x="1180" 
d="M-16 174l176 238q85 -76 158.5 -111t146.5 -35q98 0 158.5 55t60.5 144q0 99 -82.5 151t-265.5 66l43 231q44 -6 75 -9t52 -3q113 0 179.5 47.5t66.5 126.5q0 63 -47.5 102.5t-122.5 39.5q-62 0 -126.5 -30t-131.5 -89l-189 184q98 108 213.5 161.5t247.5 53.5
q213 0 348 -109t135 -276q0 -113 -66.5 -198t-205.5 -148q104 -55 157.5 -142t53.5 -202q0 -205 -149.5 -337t-385.5 -132q-144 0 -264 53t-235 168z" />
    <glyph glyph-name="four" unicode="4" horiz-adv-x="1180" 
d="M563 0l47 264h-616l31 287l782 899h326l-166 -934h135l-43 -252h-135l-47 -264h-314zM678 516l123 610l-520 -610h397z" />
    <glyph glyph-name="five" unicode="5" horiz-adv-x="1180" 
d="M141 651l-28 17l209 782h784l-96 -285h-480l-57 -221q4 0 11 1q45 3 67 3q227 0 373.5 -136.5t146.5 -344.5q0 -229 -161 -371.5t-425 -142.5q-158 0 -292.5 46t-241.5 136l151 266q92 -68 178 -101.5t171 -33.5q123 0 205.5 63t82.5 152q0 101 -85.5 161t-229.5 60
q-61 0 -129 -12t-154 -39z" />
    <glyph glyph-name="six" unicode="6" horiz-adv-x="1180" 
d="M369 446q0 -91 51 -147.5t133 -56.5q93 0 154 64.5t61 162.5q0 87 -53.5 144t-134.5 57q-90 0 -150.5 -65t-60.5 -159zM1077 1450l-211 -205q-258 -249 -329 -336q35 11 68 16t65 5q184 0 303 -121.5t119 -312.5q0 -234 -151.5 -388.5t-383.5 -154.5t-371 138t-139 370
q0 203 133 428.5t457 560.5h440z" />
    <glyph glyph-name="seven" unicode="7" horiz-adv-x="1180" 
d="M565 0h-354l573 1176h-649l78 274h1028z" />
    <glyph glyph-name="eight" unicode="8" horiz-adv-x="1180" 
d="M596 664q-108 -32 -165.5 -94t-57.5 -144q0 -81 58.5 -139t137.5 -58q81 0 136 58t55 141q0 58 -39.5 115t-124.5 121zM645 895q94 28 145.5 81t51.5 120q0 64 -49.5 107.5t-122.5 43.5q-79 0 -128.5 -42.5t-49.5 -106.5q0 -50 39.5 -103t113.5 -100zM375 809
q-86 69 -126 142t-40 161q0 169 128.5 278t332.5 109q199 0 331 -111t132 -276q0 -119 -70 -216.5t-186 -139.5q99 -76 147.5 -163.5t48.5 -193.5q0 -191 -143 -318.5t-363 -127.5q-230 0 -374 124.5t-144 321.5q0 144 83.5 249.5t242.5 160.5z" />
    <glyph glyph-name="nine" unicode="9" horiz-adv-x="1180" 
d="M813 1006q0 91 -51.5 147.5t-132.5 56.5q-93 0 -154 -65.5t-61 -163.5q0 -87 53 -143t135 -56q89 0 150 65t61 159zM96 0l361 342.5t188 200.5q-35 -11 -68 -16t-65 -5q-185 0 -303.5 120.5t-118.5 311.5q0 235 152 390t385 155q230 0 369 -139t139 -371
q0 -203 -133 -428.5t-457 -560.5h-449z" />
    <glyph glyph-name="colon" unicode=":" horiz-adv-x="637" 
d="M164 758q0 70 49 120t119 50q72 0 122 -49t50 -121q0 -70 -50.5 -120t-121.5 -50q-69 0 -118.5 50.5t-49.5 119.5zM55 145q0 71 49.5 120.5t118.5 49.5q73 0 122.5 -49t49.5 -121q0 -70 -50 -120t-122 -50q-68 0 -118 51t-50 119z" />
    <glyph glyph-name="semicolon" unicode=";" horiz-adv-x="637" 
d="M164 758q0 70 49 120t119 50q72 0 122 -49t50 -121q0 -70 -50.5 -120t-121.5 -50q-69 0 -118.5 50.5t-49.5 119.5zM-76 -309l215 561h283l-248 -561h-250z" />
    <glyph glyph-name="less" unicode="&#x3c;" horiz-adv-x="1706" 
d="M1442 1194v-219l-893 -365l893 -364v-219l-1178 485v199z" />
    <glyph glyph-name="equal" unicode="=" horiz-adv-x="1706" 
d="M254 496h1198v-199h-1198v199zM254 926h1198v-199h-1198v199z" />
    <glyph glyph-name="greater" unicode="&#x3e;" horiz-adv-x="1706" 
d="M264 1194l1178 -483v-199l-1178 -485v219l895 364l-895 365v219z" />
    <glyph glyph-name="question" unicode="?" horiz-adv-x="1010" 
d="M162 430l80 453q66 -14 98 -18.5t57 -4.5q108 0 171 50t63 134q0 72 -61 120t-154 48q-53 0 -109.5 -17t-124.5 -54l43 307q76 26 143.5 38.5t129.5 12.5q203 0 330.5 -122t127.5 -310q0 -192 -124 -318t-318 -126q-19 0 -29 0.5t-18 0.5l-25 -139zM100 145
q0 70 50.5 120t119.5 50q73 0 121.5 -48.5t48.5 -121.5q0 -70 -49.5 -120t-120.5 -50q-68 0 -119 51t-51 119z" />
    <glyph glyph-name="at" unicode="@" horiz-adv-x="2048" 
d="M1167 272q-55 -84 -127 -123.5t-170 -39.5q-158 0 -240.5 86t-82.5 254q0 239 139.5 401t343.5 162q80 0 139 -33t97 -98l53 98h178l-147 -598q-3 -11 -5 -22.5t-2 -18.5q0 -35 24 -52.5t71 -17.5q39 0 81.5 20t79.5 56q86 80 130.5 187t44.5 235q0 240 -185.5 394.5
t-478.5 154.5q-141 0 -262.5 -34t-220.5 -101q-170 -114 -261.5 -285t-91.5 -375q0 -307 207 -490.5t553 -183.5q162 0 316.5 49t287.5 142l82 -117q-153 -115 -324.5 -173t-357.5 -58q-192 0 -353 48.5t-286 143.5q-155 121 -232 279t-77 358q0 167 52.5 318.5t154.5 275.5
q148 181 356 274t463 93q169 0 317.5 -45.5t258.5 -128.5q135 -105 201.5 -239.5t66.5 -303.5q0 -165 -65.5 -304.5t-188.5 -238.5q-70 -56 -152.5 -85.5t-171.5 -29.5q-106 0 -159.5 42t-55.5 124zM1217 700q-13 81 -57.5 123.5t-117.5 42.5q-114 0 -198 -124t-84 -298
q0 -92 40.5 -140t117.5 -48q83 0 151.5 63t93.5 164z" />
    <glyph glyph-name="A" unicode="A" horiz-adv-x="1356" 
d="M846 451l-117 395l-258 -395h375zM184 0h-338l1000 1497h33l446 -1497h-350l-60 213h-596z" />
    <glyph glyph-name="B" unicode="B" horiz-adv-x="1247" 
d="M520 260q128 0 194 53.5t66 157.5q0 81 -48.5 124.5t-139.5 43.5h-129l-70 -379h127zM559 1190l-55 -313h129q103 0 162 48t59 130q0 69 -51.5 102t-163.5 33h-80zM33 0l256 1450h405q222 0 342.5 -94t120.5 -266q0 -123 -64.5 -210t-195.5 -141q101 -52 152 -128.5
t51 -176.5q0 -109 -52 -203t-143 -149q-73 -44 -162 -63t-276 -19h-25h-409z" />
    <glyph glyph-name="C" unicode="C" horiz-adv-x="1309" 
d="M1182 117q-94 -80 -206 -122t-231 -42q-297 0 -485 196t-188 506q0 179 60.5 337.5t174.5 279.5q104 110 243 168.5t296 58.5q129 0 246.5 -43t238.5 -135l-139 -295q-82 82 -167.5 123t-174.5 41q-178 0 -303 -150.5t-125 -365.5q0 -176 97.5 -288t248.5 -112
q74 0 149.5 37.5t153.5 112.5z" />
    <glyph glyph-name="D" unicode="D" horiz-adv-x="1489" 
d="M33 0l256 1450h301q202 0 336.5 -31.5t230.5 -99.5q130 -92 198 -228t68 -305q0 -182 -76.5 -336.5t-220.5 -263.5q-128 -97 -298 -141.5t-425 -44.5h-370zM426 307h104q249 0 397 128t148 337q0 183 -116.5 277t-344.5 94h-41z" />
    <glyph glyph-name="E" unicode="E" horiz-adv-x="1165" 
d="M35 0l256 1450h880l-51 -293h-549l-47 -270h523l-54 -293h-522l-51 -299h569l-51 -295h-903z" />
    <glyph glyph-name="F" unicode="F" horiz-adv-x="1128" 
d="M35 0l256 1450h901l-53 -293h-561l-48 -270h517l-54 -293h-514l-104 -594h-340z" />
    <glyph glyph-name="G" unicode="G" horiz-adv-x="1507" 
d="M1268 43q-121 -45 -237 -67.5t-232 -22.5q-337 0 -532 189t-195 513q0 178 61 337t176 282q106 112 253.5 169.5t328.5 57.5q150 0 295 -43t284 -129l-151 -293q-105 79 -212.5 119.5t-213.5 40.5q-206 0 -338.5 -145t-132.5 -371q0 -190 104 -300t283 -110q40 0 80 3
t80 10l35 194h-261l50 285h602z" />
    <glyph glyph-name="H" unicode="H" horiz-adv-x="1565" 
d="M33 0l256 1450h340l-94 -535h561l94 535h340l-254 -1450h-340l108 618h-563l-108 -618h-340z" />
    <glyph glyph-name="I" unicode="I" horiz-adv-x="682" 
d="M39 0l256 1450h344l-256 -1450h-344z" />
    <glyph glyph-name="J" unicode="J" horiz-adv-x="854" 
d="M303 537l162 913h344l-168 -938q-56 -317 -164 -427t-325 -110q-78 0 -148.5 21.5t-146.5 66.5l84 279q58 -37 104.5 -55.5t81.5 -18.5q73 0 110.5 53t65.5 216z" />
    <glyph glyph-name="K" unicode="K" horiz-adv-x="1384" 
d="M33 0l256 1450h340l-103 -586l533 586h401l-616 -664l475 -786h-406l-411 729l-129 -729h-340z" />
    <glyph glyph-name="L" unicode="L" horiz-adv-x="1071" 
d="M33 0l256 1450h348l-203 -1155h565l-53 -295h-913z" />
    <glyph glyph-name="M" unicode="M" horiz-adv-x="1767" 
d="M-57 0l563 1497h41l321 -889l547 889h43l180 -1497h-338l-71 655l-418 -702h-43l-262 729l-252 -682h-311z" />
    <glyph glyph-name="N" unicode="N" horiz-adv-x="1587" 
d="M35 0l260 1497h43l745 -850l140 803h329l-266 -1497h-43l-743 852l-142 -805h-323z" />
    <glyph glyph-name="O" unicode="O" horiz-adv-x="1602" 
d="M68 659q0 177 61 333t178 280q105 111 244.5 169t300.5 58q302 0 491 -194t189 -504q0 -174 -60 -331t-174 -280q-108 -116 -250 -176.5t-305 -60.5q-300 0 -487.5 196t-187.5 510zM825 1180q-163 0 -284 -148t-121 -356q0 -179 97.5 -289.5t254.5 -110.5
q165 0 286.5 148t121.5 356q0 177 -99.5 288.5t-255.5 111.5z" />
    <glyph glyph-name="P" unicode="P" horiz-adv-x="1210" 
d="M512 782q9 0 27 -1q43 -3 55 -3q118 0 189 59t71 154q0 85 -59 130.5t-168 45.5q-18 0 -27.5 -0.5t-17.5 -1.5zM467 520l-92 -520h-340l256 1450h307q280 0 436 -119t156 -334q0 -218 -163.5 -347.5t-444.5 -129.5h-115z" />
    <glyph glyph-name="Q" unicode="Q" horiz-adv-x="1602" 
d="M136 -131q15 70 36 135t47 125q28 -3 52 -4.5t46 -1.5l2 16q-121 49 -188.5 175.5t-67.5 308.5q0 383 223 629.5t566 246.5q301 0 490.5 -193.5t189.5 -502.5q0 -351 -205.5 -585t-519.5 -237v-26q58 -13 169 -43q228 -64 347 -64q7 0 21.5 1t21.5 1l-92 -306
q-108 5 -223 37.5t-320 123.5l-51 23q-321 143 -485 143q-25 0 -37 -0.5t-22 -1.5zM825 1180q-164 0 -284.5 -147.5t-120.5 -356.5q0 -180 97 -291t255 -111q165 0 286.5 149t121.5 357q0 177 -99.5 288.5t-255.5 111.5z" />
    <glyph glyph-name="R" unicode="R" horiz-adv-x="1280" 
d="M506 766q18 -1 38 -1.5t50 -0.5q130 0 204 61t74 166q0 96 -64 145.5t-190 49.5h-36zM473 569l-102 -569h-336l256 1450h348q264 0 415.5 -122.5t151.5 -332.5q0 -159 -98.5 -266t-273.5 -137l364 -592h-387l-326 569h-12z" />
    <glyph glyph-name="S" unicode="S" horiz-adv-x="1118" 
d="M49 55l62 342q89 -72 175.5 -108.5t168.5 -36.5q89 0 143.5 46t54.5 120q0 54 -30.5 97.5t-122.5 105.5l-99 65q-136 91 -193.5 180t-57.5 203q0 187 130.5 308.5t335.5 121.5q102 0 202 -29.5t206 -91.5l-109 -268q-90 59 -164.5 86t-146.5 27q-60 0 -100.5 -36
t-40.5 -89q0 -40 22.5 -74t69.5 -66l141 -94q148 -99 214.5 -199.5t66.5 -222.5q0 -217 -142.5 -353t-373.5 -136q-101 0 -203.5 25.5t-208.5 76.5z" />
    <glyph glyph-name="T" unicode="T" horiz-adv-x="1255" 
d="M311 0l205 1153h-475l53 297h1278l-51 -297h-465l-205 -1153h-340z" />
    <glyph glyph-name="U" unicode="U" horiz-adv-x="1522" 
d="M141 692l133 758h340l-137 -778q-8 -46 -12 -86t-4 -66q0 -127 65 -195.5t187 -68.5q149 0 229.5 98.5t122.5 341.5l133 754h301l-143 -819q-64 -359 -219 -519.5t-435 -160.5q-278 0 -431.5 136.5t-153.5 381.5q0 45 6 101.5t18 121.5z" />
    <glyph glyph-name="V" unicode="V" horiz-adv-x="1284" 
d="M514 -47h-43l-420 1497h346l215 -788l469 788h344z" />
    <glyph glyph-name="W" unicode="W" horiz-adv-x="1810" 
d="M500 -47h-43l-398 1497h347l182 -735l393 782h43l180 -770l375 723h344l-811 -1497h-43l-186 756z" />
    <glyph glyph-name="X" unicode="X" horiz-adv-x="1456" 
d="M291 0h-391l635 743l-418 707h387l256 -444l383 444h387l-615 -709l441 -741h-387l-279 479z" />
    <glyph glyph-name="Y" unicode="Y" horiz-adv-x="1262" 
d="M690 0h-340l111 635l-457 815h369l297 -551l397 551h348l-620 -850z" />
    <glyph glyph-name="Z" unicode="Z" horiz-adv-x="1360" 
d="M-70 0l899 1161h-725l62 289h1259l-843 -1143h675l-49 -307h-1278z" />
    <glyph glyph-name="bracketleft" unicode="[" horiz-adv-x="707" 
d="M186 -195h291l-18 -106h-537l309 1751h537l-18 -107h-291z" />
    <glyph glyph-name="backslash" unicode="\" horiz-adv-x="616" 
d="M358 -190l-243 1687h149l244 -1687h-150z" />
    <glyph glyph-name="bracketright" unicode="]" horiz-adv-x="707" 
d="M461 1343h-291l18 107h537l-309 -1751h-537l19 106h290z" />
    <glyph glyph-name="asciicircum" unicode="^" horiz-adv-x="2048" 
d="M897 1460h252l481 -561h-235l-371 371l-373 -371h-235z" />
    <glyph glyph-name="underscore" unicode="_" 
d="M0 -279h1024v-204h-1024v204z" />
    <glyph glyph-name="grave" unicode="`" 
d="M711 1053h-117l-301 348h213z" />
    <glyph glyph-name="a" unicode="a" horiz-adv-x="1130" 
d="M686 618q-24 49 -58.5 73t-80.5 24q-96 0 -163 -99t-67 -247q0 -78 38 -125t102 -47q73 0 125.5 62.5t72.5 176.5zM1049 901l-158 -901h-313l16 94q-72 -67 -137 -98t-133 -31q-140 0 -226 108.5t-86 286.5q0 247 127 410.5t318 163.5q75 0 137 -29.5t127 -95.5l14 92
h314z" />
    <glyph glyph-name="b" unicode="b" horiz-adv-x="1130" 
d="M362 365q0 -73 40.5 -120.5t101.5 -47.5q88 0 149.5 97.5t61.5 240.5q0 78 -36.5 124t-98.5 46q-92 0 -155 -97.5t-63 -242.5zM-16 0l260 1470h313l-117 -663q68 66 133.5 97.5t135.5 31.5q139 0 225 -108.5t86 -286.5q0 -248 -124 -416t-302 -168q-79 0 -150 34
t-131 101l-18 -92h-311z" />
    <glyph glyph-name="c" unicode="c" horiz-adv-x="973" 
d="M852 575q-66 56 -129.5 83.5t-124.5 27.5q-120 0 -200.5 -71t-80.5 -173q0 -98 60 -159.5t153 -61.5q60 0 117.5 18.5t124.5 59.5l49 -256q-94 -45 -175.5 -66.5t-160.5 -21.5q-211 0 -343 126t-132 327q0 228 158.5 382t396.5 154q95 0 184 -26.5t173 -79.5z" />
    <glyph glyph-name="d" unicode="d" horiz-adv-x="1133" 
d="M578 0l16 94q-69 -66 -135 -97.5t-135 -31.5q-140 0 -226 108.5t-86 286.5q0 247 127 410.5t318 163.5q77 0 141.5 -30.5t122.5 -94.5l115 661h313l-258 -1470h-313zM686 618q-24 49 -58.5 73t-80.5 24q-96 0 -163 -99t-67 -247q0 -78 39 -125t103 -47q73 0 124.5 62.5
t71.5 176.5z" />
    <glyph glyph-name="e" unicode="e" horiz-adv-x="1059" 
d="M330 537h381q1 9 1.5 18.5t0.5 17.5q0 69 -45.5 113.5t-116.5 44.5q-74 0 -135 -53t-86 -141zM829 41q-86 -42 -173 -63t-173 -21q-209 0 -339 125t-130 326q0 222 155 378t378 156q187 0 298 -111.5t111 -300.5q0 -25 -1 -45t-3 -41l-18 -32h-629v-15q0 -100 60 -154.5
t172 -54.5q68 0 150.5 22.5t180.5 68.5z" />
    <glyph glyph-name="f" unicode="f" horiz-adv-x="725" 
d="M37 0l119 672h-176l38 229h177l30 168q37 208 131 312t244 104q50 0 104.5 -11t116.5 -34l-47 -277q-33 12 -57.5 17.5t-42.5 5.5q-59 0 -92 -34.5t-47 -113.5l-23 -137h215l-41 -229h-215l-119 -672h-315z" />
    <glyph glyph-name="g" unicode="g" horiz-adv-x="1130" 
d="M63 -125q88 -45 157.5 -65.5t131.5 -20.5q107 0 163 72.5t79 242.5q-71 -63 -137.5 -92.5t-134.5 -29.5q-140 0 -225 104t-85 276q0 245 127.5 408.5t317.5 163.5q75 0 137 -29.5t127 -95.5l14 92h314l-148 -846q-47 -266 -163 -379.5t-332 -113.5q-100 0 -197.5 22.5
t-188.5 67.5zM686 618q-24 49 -58.5 73t-80.5 24q-94 0 -162 -97.5t-68 -238.5q0 -84 38.5 -134t101.5 -50q73 0 125.5 63t72.5 178z" />
    <glyph glyph-name="h" unicode="h" horiz-adv-x="1133" 
d="M-18 0l258 1470h313l-121 -694q76 78 151.5 115t157.5 37q122 0 195.5 -71t73.5 -187q0 -15 -2 -32.5t-4 -32.5l-107 -605h-313l92 512q0 2 1 6q7 47 7 72q0 41 -23.5 64.5t-64.5 23.5q-77 0 -141 -65.5t-82 -170.5l-78 -442h-313z" />
    <glyph glyph-name="i" unicode="i" horiz-adv-x="541" 
d="M178 1243q0 69 48.5 117.5t117.5 48.5q70 0 118 -48t48 -118q0 -69 -48.5 -117.5t-117.5 -48.5q-68 0 -117 49t-49 117zM-16 0l157 901h320l-160 -901h-317z" />
    <glyph glyph-name="j" unicode="j" horiz-adv-x="543" 
d="M180 1243q0 70 47.5 118t116.5 48q70 0 118 -48t48 -118q0 -69 -48.5 -117.5t-117.5 -48.5q-68 0 -116 49t-48 117zM276 -147q-22 -122 -43.5 -176.5t-56.5 -94.5l-364 -18q58 42 91 107t56 190l184 1040h318z" />
    <glyph glyph-name="k" unicode="k" horiz-adv-x="1051" 
d="M-18 0l260 1470h313l-156 -886l332 317h365l-428 -393l323 -508h-344l-264 489l-88 -489h-313z" />
    <glyph glyph-name="l" unicode="l" horiz-adv-x="541" 
d="M-16 0l258 1470h319l-260 -1470h-317z" />
    <glyph glyph-name="m" unicode="m" horiz-adv-x="1718" 
d="M-18 0l159 901h310l-23 -135q70 81 147.5 121.5t161.5 40.5q100 0 167.5 -49.5t90.5 -139.5q76 96 158.5 142.5t175.5 46.5q121 0 193.5 -71.5t72.5 -188.5q0 -16 -1.5 -31.5t-4.5 -32.5l-108 -604h-312l91 512q4 20 6 40t2 38q0 41 -22.5 64.5t-61.5 23.5
q-76 0 -136 -64t-79 -172l-80 -442h-314l91 513q5 26 7.5 45t2.5 32q0 40 -23.5 64t-62.5 24q-76 0 -136 -64t-79 -172l-80 -442h-313z" />
    <glyph glyph-name="n" unicode="n" horiz-adv-x="1133" 
d="M-18 0l159 901h308l-23 -135q73 82 150.5 122t164.5 40q122 0 195.5 -71t73.5 -187q0 -15 -2 -32.5t-4 -32.5l-107 -605h-313l92 512q0 2 1 6q7 47 7 72q0 41 -23.5 64.5t-64.5 23.5q-77 0 -139.5 -64.5t-81.5 -171.5l-80 -442h-313z" />
    <glyph glyph-name="o" unicode="o" horiz-adv-x="1118" 
d="M8 410q0 225 155.5 379.5t385.5 154.5q204 0 333.5 -124t129.5 -322q0 -227 -153.5 -383t-375.5 -156q-213 0 -344 124.5t-131 326.5zM535 707q-83 0 -144 -87t-61 -210q0 -96 45 -155.5t114 -59.5q83 0 142 86t59 213q0 95 -43 154t-112 59z" />
    <glyph glyph-name="p" unicode="p" horiz-adv-x="1126" 
d="M346 283q47 -44 87 -65t75 -21q86 0 146.5 97.5t60.5 242.5q0 76 -36 122t-95 46q-41 0 -84.5 -23t-93.5 -70zM-94 -436l235 1337h314l-17 -94q72 67 137 98t134 31q138 0 223.5 -108.5t85.5 -286.5q0 -245 -124 -414.5t-298 -169.5q-77 0 -149 34.5t-134 100.5l-94 -528
h-313z" />
    <glyph glyph-name="q" unicode="q" horiz-adv-x="1130" 
d="M686 618q-24 49 -58.5 73t-80.5 24q-96 0 -163 -99t-67 -247q0 -78 38 -125t102 -47q73 0 125.5 62.5t72.5 176.5zM1049 901l-236 -1337h-313l94 530q-72 -67 -137 -98t-133 -31q-141 0 -227.5 108.5t-86.5 286.5q0 247 128 410.5t319 163.5q76 0 140 -30t124 -95l14 92
h314z" />
    <glyph glyph-name="r" unicode="r" horiz-adv-x="772" 
d="M-18 0l159 901h285l-31 -176q57 103 119.5 153t136.5 50q22 0 44.5 -3.5t45.5 -11.5l-57 -317q-28 7 -53.5 10.5t-48.5 3.5q-94 0 -146.5 -61.5t-77.5 -200.5l-59 -348h-317z" />
    <glyph glyph-name="s" unicode="s" horiz-adv-x="854" 
d="M37 262q88 -51 162.5 -76.5t132.5 -25.5q47 0 77.5 22.5t30.5 55.5q0 28 -21.5 49t-94.5 55l-60 29q-103 49 -155 119.5t-52 160.5q0 126 102.5 208.5t264.5 82.5q94 0 183.5 -27.5t178.5 -85.5l-84 -182q-74 46 -139.5 70t-116.5 24q-49 0 -79.5 -21.5t-30.5 -55.5
q0 -31 26 -54t111 -59l55 -23q92 -39 143.5 -110t51.5 -158q0 -134 -105.5 -217.5t-277.5 -83.5q-103 0 -199.5 27.5t-185.5 83.5z" />
    <glyph glyph-name="t" unicode="t" horiz-adv-x="739" 
d="M588 23q-67 -23 -126.5 -34.5t-113.5 -11.5q-128 0 -200 61.5t-72 170.5q0 19 3.5 48t12.5 77l60 338h-172l38 229h175l47 277l325 63l-59 -340h217l-41 -229h-217l-55 -312q-3 -12 -3.5 -25.5t-0.5 -33.5q0 -44 19.5 -66t59.5 -22q23 0 55.5 7.5t86.5 25.5z" />
    <glyph glyph-name="u" unicode="u" horiz-adv-x="1133" 
d="M1053 901l-160 -901h-309l24 135q-72 -82 -150 -122t-165 -40q-122 0 -195 71t-73 187q0 17 1.5 33.5t4.5 32.5l106 604h312l-91 -512v-5q-8 -48 -8 -73q0 -41 23.5 -64.5t64.5 -23.5q78 0 140 64t81 170l80 444h314z" />
    <glyph glyph-name="v" unicode="v" horiz-adv-x="901" 
d="M293 -51l-328 952h318l123 -379l241 379h291l-619 -952h-26z" />
    <glyph glyph-name="w" unicode="w" horiz-adv-x="1354" 
d="M276 -51l-303 952h320l117 -418l270 469h27l137 -469l237 418h295l-571 -952h-27l-170 461l-307 -461h-25z" />
    <glyph glyph-name="x" unicode="x" horiz-adv-x="958" 
d="M-123 0l381 440l-293 461h359l143 -252l199 252h305l-363 -438l305 -463h-358l-154 252l-204 -252h-320z" />
    <glyph glyph-name="y" unicode="y" horiz-adv-x="915" 
d="M-6 -436l235 481l-264 856h320l139 -485l215 485h281l-644 -1337h-282z" />
    <glyph glyph-name="z" unicode="z" horiz-adv-x="920" 
d="M-98 0l477 670h-356l67 231h805l-469 -670h387l-63 -231h-848z" />
    <glyph glyph-name="braceleft" unicode="{" 
d="M883 1477v-209q-9 0 -25 1t-22 1q-101 0 -136.5 -38.5t-35.5 -162.5v-240q0 -148 -45 -210t-162 -89q117 -27 162 -88t45 -209v-241q0 -123 35 -161t137 -38q6 0 22 1t25 1v-209q-14 0 -39 -1t-37 -1q-100 0 -167 12t-114 37q-57 34 -80.5 91.5t-23.5 199.5v252
q0 137 -51 194.5t-172 57.5q-6 0 -20 -1t-21 -1v209q7 0 21 -1t20 -1q120 0 171.5 58t51.5 196v250q0 143 23.5 201t80.5 92q47 25 114 37t167 12q12 0 37 -1t39 -1z" />
    <glyph glyph-name="bar" unicode="|" 
d="M410 1565h206v-2048h-206v2048z" />
    <glyph glyph-name="braceright" unicode="}" 
d="M143 1477h68q110 0 177 -12t112 -38q57 -32 80.5 -91.5t23.5 -198.5v-252q0 -137 51 -194.5t172 -57.5q6 0 20 1t21 1v-209h-37q-125 0 -176 -56t-51 -194v-252q0 -143 -23.5 -201t-80.5 -90q-47 -25 -114 -37t-167 -12q-12 0 -37 1t-39 1v209q9 0 25 -1t22 -1
q101 0 136.5 38.5t35.5 160.5v239q0 150 45 211.5t162 87.5q-117 27 -162 89t-45 210v242q0 122 -35.5 160.5t-136.5 38.5q-6 0 -22 -1t-25 -1v209z" />
    <glyph glyph-name="asciitilde" unicode="~" horiz-adv-x="1706" 
d="M1530 803v-221q-104 -71 -196.5 -104.5t-182.5 -33.5q-46 0 -92 8t-92 23q-24 8 -71 25q-219 75 -333 75q-85 0 -177.5 -37.5t-207.5 -119.5v221q107 72 204 107.5t183 35.5q117 0 291 -58q3 -1 4 -1l55 -19q155 -55 240 -55t175 37t200 117z" />
    <glyph glyph-name="Adieresis" unicode="&#xc4;" horiz-adv-x="1356" 
d="M846 451l-117 395l-258 -395h375zM184 0h-338l1000 1497h33l446 -1497h-350l-60 213h-596zM612 1772q0 53 37 91t90 38q55 0 92 -37t37 -92q0 -53 -38 -90t-91 -37q-51 0 -89 38t-38 89zM950 1772q0 53 38 91t91 38q55 0 92 -37t37 -92q0 -53 -38 -90t-91 -37
q-51 0 -90 38t-39 89z" />
    <glyph glyph-name="Aring" unicode="&#xc5;" horiz-adv-x="1356" 
d="M745 1722q0 -52 35.5 -87.5t87.5 -35.5q53 0 88 35.5t35 87.5q0 53 -35 88t-88 35q-52 0 -87.5 -35t-35.5 -88zM846 451l-117 395l-258 -395h375zM184 0h-338l996 1477q-97 6 -160.5 76t-63.5 169q0 104 73 177t177 73t177 -73t73 -177q0 -99 -66.5 -170t-166.5 -77
l440 -1475h-350l-60 213h-596z" />
    <glyph glyph-name="Ccedilla" unicode="&#xc7;" horiz-adv-x="1309" 
d="M1182 117q-94 -80 -206 -122t-231 -42q-297 0 -485 196t-188 506q0 179 60.5 337.5t174.5 279.5q104 110 243 168.5t296 58.5q129 0 246.5 -43t238.5 -135l-139 -295q-82 82 -167.5 123t-174.5 41q-178 0 -303 -150.5t-125 -365.5q0 -176 97.5 -288t248.5 -112
q74 0 149.5 37.5t153.5 112.5zM434 -426l43 111q67 -23 124 -35t100 -12q54 0 86 24t32 66q0 41 -35.5 58t-125.5 17h-39l69 197h90l-34 -94h8q111 0 169 -43.5t58 -126.5q0 -101 -66 -158t-184 -57q-55 0 -120.5 11.5t-174.5 41.5z" />
    <glyph glyph-name="Eacute" unicode="&#xc9;" horiz-adv-x="1165" 
d="M35 0l256 1450h880l-51 -293h-549l-47 -270h523l-54 -293h-522l-51 -299h569l-51 -295h-903zM764 1608h-131l219 348h215z" />
    <glyph glyph-name="Ntilde" unicode="&#xd1;" horiz-adv-x="1587" 
d="M35 0l260 1497h43l745 -850l140 803h329l-266 -1497h-43l-743 852l-142 -805h-323zM1290 1901q-29 -110 -80.5 -161.5t-130.5 -51.5q-20 0 -40 3t-40 9l-57 18q-18 5 -32.5 7.5t-24.5 3.5q-34 0 -57.5 -20.5t-35.5 -59.5h-106q29 110 81.5 163.5t131.5 53.5q19 0 40 -3.5
t44 -9.5l57 -18q15 -5 28 -7.5t23 -2.5q34 0 57.5 19t35.5 57h106z" />
    <glyph glyph-name="Odieresis" unicode="&#xd6;" horiz-adv-x="1602" 
d="M68 659q0 177 61 333t178 280q105 111 244.5 169t300.5 58q302 0 491 -194t189 -504q0 -174 -60 -331t-174 -280q-108 -116 -250 -176.5t-305 -60.5q-300 0 -487.5 196t-187.5 510zM825 1180q-163 0 -284 -148t-121 -356q0 -179 97.5 -289.5t254.5 -110.5
q165 0 286.5 148t121.5 356q0 177 -99.5 288.5t-255.5 111.5zM659 1772q0 53 37 91t90 38q55 0 92 -37t37 -92q0 -53 -38 -90t-91 -37q-51 0 -89 38t-38 89zM997 1772q0 53 38 91t91 38q55 0 92 -37t37 -92q0 -53 -38 -90t-91 -37q-51 0 -90 38t-39 89z" />
    <glyph glyph-name="Udieresis" unicode="&#xdc;" horiz-adv-x="1522" 
d="M141 692l133 758h340l-137 -778q-8 -46 -12 -86t-4 -66q0 -127 65 -195.5t187 -68.5q149 0 229.5 98.5t122.5 341.5l133 754h301l-143 -819q-64 -359 -219 -519.5t-435 -160.5q-278 0 -431.5 136.5t-153.5 381.5q0 45 6 101.5t18 121.5zM649 1772q0 53 37 91t90 38
q55 0 92 -37t37 -92q0 -53 -38 -90t-91 -37q-51 0 -89 38t-38 89zM987 1772q0 53 38 91t91 38q55 0 92 -37t37 -92q0 -53 -38 -90t-91 -37q-51 0 -90 38t-39 89z" />
    <glyph glyph-name="aacute" unicode="&#xe1;" horiz-adv-x="1130" 
d="M686 618q-24 49 -58.5 73t-80.5 24q-96 0 -163 -99t-67 -247q0 -78 38 -125t102 -47q73 0 125.5 62.5t72.5 176.5zM1049 901l-158 -901h-313l16 94q-72 -67 -137 -98t-133 -31q-140 0 -226 108.5t-86 286.5q0 247 127 410.5t318 163.5q75 0 137 -29.5t127 -95.5l14 92
h314zM662 1053h-131l219 348h215z" />
    <glyph glyph-name="agrave" unicode="&#xe0;" horiz-adv-x="1130" 
d="M686 618q-24 49 -58.5 73t-80.5 24q-96 0 -163 -99t-67 -247q0 -78 38 -125t102 -47q73 0 125.5 62.5t72.5 176.5zM1049 901l-158 -901h-313l16 94q-72 -67 -137 -98t-133 -31q-140 0 -226 108.5t-86 286.5q0 247 127 410.5t318 163.5q75 0 137 -29.5t127 -95.5l14 92
h314zM822 1053h-117l-301 348h213z" />
    <glyph glyph-name="acircumflex" unicode="&#xe2;" horiz-adv-x="1130" 
d="M686 618q-24 49 -58.5 73t-80.5 24q-96 0 -163 -99t-67 -247q0 -78 38 -125t102 -47q73 0 125.5 62.5t72.5 176.5zM1049 901l-158 -901h-313l16 94q-72 -67 -137 -98t-133 -31q-140 0 -226 108.5t-86 286.5q0 247 127 410.5t318 163.5q75 0 137 -29.5t127 -95.5l14 92
h314zM963 1053h-119l-129 200l-217 -200h-131l254 348h213z" />
    <glyph glyph-name="adieresis" unicode="&#xe4;" horiz-adv-x="1130" 
d="M686 618q-24 49 -58.5 73t-80.5 24q-96 0 -163 -99t-67 -247q0 -78 38 -125t102 -47q73 0 125.5 62.5t72.5 176.5zM1049 901l-158 -901h-313l16 94q-72 -67 -137 -98t-133 -31q-140 0 -226 108.5t-86 286.5q0 247 127 410.5t318 163.5q75 0 137 -29.5t127 -95.5l14 92
h314zM408 1217q0 53 37 91t90 38q55 0 92 -37t37 -92q0 -53 -38 -90t-91 -37q-51 0 -89 38t-38 89zM746 1217q0 53 38 91t91 38q55 0 92 -37t37 -92q0 -53 -38 -90t-91 -37q-51 0 -90 38t-39 89z" />
    <glyph glyph-name="atilde" unicode="&#xe3;" horiz-adv-x="1130" 
d="M686 618q-24 49 -58.5 73t-80.5 24q-96 0 -163 -99t-67 -247q0 -78 38 -125t102 -47q73 0 125.5 62.5t72.5 176.5zM1049 901l-158 -901h-313l16 94q-72 -67 -137 -98t-133 -31q-140 0 -226 108.5t-86 286.5q0 247 127 410.5t318 163.5q75 0 137 -29.5t127 -95.5l14 92
h314zM1008 1346q-29 -110 -80.5 -161.5t-130.5 -51.5q-20 0 -40 3t-40 9l-57 18q-18 5 -32.5 7.5t-24.5 3.5q-34 0 -57.5 -20.5t-35.5 -59.5h-106q29 110 81.5 163.5t131.5 53.5q19 0 40 -3.5t44 -9.5l57 -18q15 -5 28 -7.5t23 -2.5q34 0 57.5 19t35.5 57h106z" />
    <glyph glyph-name="aring" unicode="&#xe5;" horiz-adv-x="1130" 
d="M543 1268q0 -54 36.5 -91.5t90.5 -37.5q52 0 89.5 37.5t37.5 91.5q0 53 -37 90t-90 37q-54 0 -90.5 -37t-36.5 -90zM412 1268q0 108 74.5 183t181.5 75q108 0 184 -75.5t76 -182.5q0 -108 -76 -183t-184 -75t-182 74.5t-74 183.5zM686 618q-24 49 -58.5 73t-80.5 24
q-96 0 -163 -99t-67 -247q0 -78 38 -125t102 -47q73 0 125.5 62.5t72.5 176.5zM1049 901l-158 -901h-313l16 94q-72 -67 -137 -98t-133 -31q-140 0 -226 108.5t-86 286.5q0 247 127 410.5t318 163.5q75 0 137 -29.5t127 -95.5l14 92h314z" />
    <glyph glyph-name="ccedilla" unicode="&#xe7;" horiz-adv-x="973" 
d="M852 575q-66 56 -129.5 83.5t-124.5 27.5q-120 0 -200.5 -71t-80.5 -173q0 -98 60 -159.5t153 -61.5q60 0 117.5 18.5t124.5 59.5l49 -256q-94 -45 -175.5 -66.5t-160.5 -21.5q-211 0 -343 126t-132 327q0 228 158.5 382t396.5 154q95 0 184 -26.5t173 -79.5zM172 -426
l43 111q67 -23 124 -35t100 -12q54 0 86 24t32 66q0 41 -35.5 58t-125.5 17h-39l69 197h90l-34 -94h8q111 0 169 -43.5t58 -126.5q0 -101 -66 -158t-184 -57q-55 0 -120.5 11.5t-174.5 41.5z" />
    <glyph glyph-name="eacute" unicode="&#xe9;" horiz-adv-x="1059" 
d="M330 537h381q1 9 1.5 18.5t0.5 17.5q0 69 -45.5 113.5t-116.5 44.5q-74 0 -135 -53t-86 -141zM829 41q-86 -42 -173 -63t-173 -21q-209 0 -339 125t-130 326q0 222 155 378t378 156q187 0 298 -111.5t111 -300.5q0 -25 -1 -45t-3 -41l-18 -32h-629v-15q0 -100 60 -154.5
t172 -54.5q68 0 150.5 22.5t180.5 68.5zM592 1053h-131l219 348h215z" />
    <glyph glyph-name="egrave" unicode="&#xe8;" horiz-adv-x="1059" 
d="M330 537h381q1 9 1.5 18.5t0.5 17.5q0 69 -45.5 113.5t-116.5 44.5q-74 0 -135 -53t-86 -141zM829 41q-86 -42 -173 -63t-173 -21q-209 0 -339 125t-130 326q0 222 155 378t378 156q187 0 298 -111.5t111 -300.5q0 -25 -1 -45t-3 -41l-18 -32h-629v-15q0 -100 60 -154.5
t172 -54.5q68 0 150.5 22.5t180.5 68.5zM752 1053h-117l-301 348h213z" />
    <glyph glyph-name="ecircumflex" unicode="&#xea;" horiz-adv-x="1059" 
d="M330 537h381q1 9 1.5 18.5t0.5 17.5q0 69 -45.5 113.5t-116.5 44.5q-74 0 -135 -53t-86 -141zM829 41q-86 -42 -173 -63t-173 -21q-209 0 -339 125t-130 326q0 222 155 378t378 156q187 0 298 -111.5t111 -300.5q0 -25 -1 -45t-3 -41l-18 -32h-629v-15q0 -100 60 -154.5
t172 -54.5q68 0 150.5 22.5t180.5 68.5zM893 1053h-119l-129 200l-217 -200h-131l254 348h213z" />
    <glyph glyph-name="edieresis" unicode="&#xeb;" horiz-adv-x="1059" 
d="M330 537h381q1 9 1.5 18.5t0.5 17.5q0 69 -45.5 113.5t-116.5 44.5q-74 0 -135 -53t-86 -141zM829 41q-86 -42 -173 -63t-173 -21q-209 0 -339 125t-130 326q0 222 155 378t378 156q187 0 298 -111.5t111 -300.5q0 -25 -1 -45t-3 -41l-18 -32h-629v-15q0 -100 60 -154.5
t172 -54.5q68 0 150.5 22.5t180.5 68.5zM338 1217q0 53 37 91t90 38q55 0 92 -37t37 -92q0 -53 -38 -90t-91 -37q-51 0 -89 38t-38 89zM676 1217q0 53 38 91t91 38q55 0 92 -37t37 -92q0 -53 -38 -90t-91 -37q-51 0 -90 38t-39 89z" />
    <glyph glyph-name="iacute" unicode="&#xed;" horiz-adv-x="541" 
d="M-16 0l157 901h320l-160 -901h-317zM320 1053h-131l219 348h215z" />
    <glyph glyph-name="igrave" unicode="&#xec;" horiz-adv-x="541" 
d="M-16 0l157 901h320l-160 -901h-317zM480 1053h-117l-301 348h213z" />
    <glyph glyph-name="icircumflex" unicode="&#xee;" horiz-adv-x="541" 
d="M-16 0l157 901h320l-160 -901h-317zM621 1053h-119l-129 200l-217 -200h-131l254 348h213z" />
    <glyph glyph-name="idieresis" unicode="&#xef;" horiz-adv-x="541" 
d="M-16 0l157 901h320l-160 -901h-317zM66 1217q0 53 37 91t90 38q55 0 92 -37t37 -92q0 -53 -38 -90t-91 -37q-51 0 -89 38t-38 89zM404 1217q0 53 38 91t91 38q55 0 92 -37t37 -92q0 -53 -38 -90t-91 -37q-51 0 -90 38t-39 89z" />
    <glyph glyph-name="ntilde" unicode="&#xf1;" horiz-adv-x="1133" 
d="M-18 0l159 901h308l-23 -135q73 82 150.5 122t164.5 40q122 0 195.5 -71t73.5 -187q0 -15 -2 -32.5t-4 -32.5l-107 -605h-313l92 512q0 2 1 6q7 47 7 72q0 41 -23.5 64.5t-64.5 23.5q-77 0 -139.5 -64.5t-81.5 -171.5l-80 -442h-313zM967 1346q-29 -110 -80.5 -161.5
t-130.5 -51.5q-20 0 -40 3t-40 9l-57 18q-18 5 -32.5 7.5t-24.5 3.5q-34 0 -57.5 -20.5t-35.5 -59.5h-106q29 110 81.5 163.5t131.5 53.5q19 0 40 -3.5t44 -9.5l57 -18q15 -5 28 -7.5t23 -2.5q34 0 57.5 19t35.5 57h106z" />
    <glyph glyph-name="oacute" unicode="&#xf3;" horiz-adv-x="1118" 
d="M8 410q0 225 155.5 379.5t385.5 154.5q204 0 333.5 -124t129.5 -322q0 -227 -153.5 -383t-375.5 -156q-213 0 -344 124.5t-131 326.5zM535 707q-83 0 -144 -87t-61 -210q0 -96 45 -155.5t114 -59.5q83 0 142 86t59 213q0 95 -43 154t-112 59zM571 1053h-131l219 348h215z
" />
    <glyph glyph-name="ograve" unicode="&#xf2;" horiz-adv-x="1118" 
d="M8 410q0 225 155.5 379.5t385.5 154.5q204 0 333.5 -124t129.5 -322q0 -227 -153.5 -383t-375.5 -156q-213 0 -344 124.5t-131 326.5zM535 707q-83 0 -144 -87t-61 -210q0 -96 45 -155.5t114 -59.5q83 0 142 86t59 213q0 95 -43 154t-112 59zM731 1053h-117l-301 348h213
z" />
    <glyph glyph-name="ocircumflex" unicode="&#xf4;" horiz-adv-x="1118" 
d="M8 410q0 225 155.5 379.5t385.5 154.5q204 0 333.5 -124t129.5 -322q0 -227 -153.5 -383t-375.5 -156q-213 0 -344 124.5t-131 326.5zM535 707q-83 0 -144 -87t-61 -210q0 -96 45 -155.5t114 -59.5q83 0 142 86t59 213q0 95 -43 154t-112 59zM872 1053h-119l-129 200
l-217 -200h-131l254 348h213z" />
    <glyph glyph-name="odieresis" unicode="&#xf6;" horiz-adv-x="1118" 
d="M8 410q0 225 155.5 379.5t385.5 154.5q204 0 333.5 -124t129.5 -322q0 -227 -153.5 -383t-375.5 -156q-213 0 -344 124.5t-131 326.5zM535 707q-83 0 -144 -87t-61 -210q0 -96 45 -155.5t114 -59.5q83 0 142 86t59 213q0 95 -43 154t-112 59zM317 1217q0 53 37 91t90 38
q55 0 92 -37t37 -92q0 -53 -38 -90t-91 -37q-51 0 -89 38t-38 89zM655 1217q0 53 38 91t91 38q55 0 92 -37t37 -92q0 -53 -38 -90t-91 -37q-51 0 -90 38t-39 89z" />
    <glyph glyph-name="otilde" unicode="&#xf5;" horiz-adv-x="1118" 
d="M8 410q0 225 155.5 379.5t385.5 154.5q204 0 333.5 -124t129.5 -322q0 -227 -153.5 -383t-375.5 -156q-213 0 -344 124.5t-131 326.5zM535 707q-83 0 -144 -87t-61 -210q0 -96 45 -155.5t114 -59.5q83 0 142 86t59 213q0 95 -43 154t-112 59zM917 1346
q-29 -110 -80.5 -161.5t-130.5 -51.5q-20 0 -40 3t-40 9l-57 18q-18 5 -32.5 7.5t-24.5 3.5q-34 0 -57.5 -20.5t-35.5 -59.5h-106q29 110 81.5 163.5t131.5 53.5q19 0 40 -3.5t44 -9.5l57 -18q15 -5 28 -7.5t23 -2.5q34 0 57.5 19t35.5 57h106z" />
    <glyph glyph-name="uacute" unicode="&#xfa;" horiz-adv-x="1133" 
d="M1053 901l-160 -901h-309l24 135q-72 -82 -150 -122t-165 -40q-122 0 -195 71t-73 187q0 17 1.5 33.5t4.5 32.5l106 604h312l-91 -512v-5q-8 -48 -8 -73q0 -41 23.5 -64.5t64.5 -23.5q78 0 140 64t81 170l80 444h314zM606 1053h-131l219 348h215z" />
    <glyph glyph-name="ugrave" unicode="&#xf9;" horiz-adv-x="1133" 
d="M1053 901l-160 -901h-309l24 135q-72 -82 -150 -122t-165 -40q-122 0 -195 71t-73 187q0 17 1.5 33.5t4.5 32.5l106 604h312l-91 -512v-5q-8 -48 -8 -73q0 -41 23.5 -64.5t64.5 -23.5q78 0 140 64t81 170l80 444h314zM766 1053h-117l-301 348h213z" />
    <glyph glyph-name="ucircumflex" unicode="&#xfb;" horiz-adv-x="1133" 
d="M1053 901l-160 -901h-309l24 135q-72 -82 -150 -122t-165 -40q-122 0 -195 71t-73 187q0 17 1.5 33.5t4.5 32.5l106 604h312l-91 -512v-5q-8 -48 -8 -73q0 -41 23.5 -64.5t64.5 -23.5q78 0 140 64t81 170l80 444h314zM907 1053h-119l-129 200l-217 -200h-131l254 348h213
z" />
    <glyph glyph-name="udieresis" unicode="&#xfc;" horiz-adv-x="1133" 
d="M1053 901l-160 -901h-309l24 135q-72 -82 -150 -122t-165 -40q-122 0 -195 71t-73 187q0 17 1.5 33.5t4.5 32.5l106 604h312l-91 -512v-5q-8 -48 -8 -73q0 -41 23.5 -64.5t64.5 -23.5q78 0 140 64t81 170l80 444h314zM352 1217q0 53 37 91t90 38q55 0 92 -37t37 -92
q0 -53 -38 -90t-91 -37q-51 0 -89 38t-38 89zM690 1217q0 53 38 91t91 38q55 0 92 -37t37 -92q0 -53 -38 -90t-91 -37q-51 0 -90 38t-39 89z" />
    <glyph glyph-name="dagger" unicode="&#x2020;" horiz-adv-x="1042" 
d="M252 -264q51 256 79.5 479t33.5 408l145 323l-356 -74l49 232l323 -78l13 424h237l-164 -422l357 66l-51 -230l-326 80l6 -330q-60 -126 -119 -317t-149 -561h-78z" />
    <glyph glyph-name="degree" unicode="&#xb0;" horiz-adv-x="674" 
d="M338 1335q-73 0 -124.5 -51t-51.5 -123q0 -74 51 -125t125 -51q72 0 123 52t51 124t-51 123t-123 51zM338 1464q126 0 214.5 -89.5t88.5 -215.5q0 -125 -89 -214t-216 -89q-126 0 -213.5 88t-87.5 215t88.5 216t214.5 89z" />
    <glyph glyph-name="cent" unicode="&#xa2;" horiz-adv-x="1180" 
d="M659 727q-97 -10 -163 -81t-66 -161q0 -62 23.5 -108.5t68.5 -75.5zM551 0l-80 -252h-129l90 275q-148 50 -228.5 162t-80.5 268q0 222 155.5 378t374.5 156q32 0 52 -0.5t38 -1.5l80 240h127l-86 -264q46 -14 88.5 -33.5t81.5 -44.5l-69 -265q-60 47 -101 69.5t-78 30.5
l-149 -454h20q53 0 108.5 19t119.5 59l49 -254q-95 -47 -176.5 -68.5t-159.5 -21.5q-19 0 -29 0.5t-18 1.5z" />
    <glyph glyph-name="sterling" unicode="&#xa3;" horiz-adv-x="1180" 
d="M109 287q84 29 134 113t50 196v63h-172l31 172h141v125q0 260 120 400.5t341 140.5q110 0 201 -46t178 -144l-172 -181q-46 57 -90 84t-91 27q-92 0 -136 -66t-44 -204v-136h285l-31 -172h-254v-59q0 -96 -21 -169t-65 -134l61 -35q34 -18 71.5 -29.5t64.5 -11.5
q42 0 76.5 28.5t64.5 88.5l231 -111q-52 -137 -136.5 -205.5t-203.5 -68.5q-62 0 -139.5 27t-154.5 77l-72 45q-56 -59 -123 -96.5t-145 -52.5v334z" />
    <glyph glyph-name="section" unicode="&#xa7;" horiz-adv-x="1042" 
d="M348 809q0 -27 20 -69t89 -148l31 -50q69 -112 122 -112q32 0 53 20.5t21 51.5q0 25 -20.5 68.5t-85.5 149.5l-13 21q-86 142 -143 142q-31 0 -52.5 -21.5t-21.5 -52.5zM45 -18l162 120q46 -61 86.5 -90.5t77.5 -29.5q47 0 72.5 25.5t25.5 72.5q0 39 -22.5 89.5
t-104.5 176.5l-47 72q-174 266 -174 379t68 177.5t198 74.5q-23 53 -34 96t-11 82q0 122 86 196t229 74q100 0 174 -44t140 -142l-168 -121q-58 70 -87.5 89t-64.5 19q-42 0 -66 -23.5t-24 -64.5q0 -52 92 -183l64 -93q116 -180 152 -264t36 -152q0 -118 -66.5 -185
t-183.5 -67q-15 0 -22.5 0.5t-13.5 1.5q34 -53 50.5 -101t16.5 -95q0 -135 -84.5 -214t-228.5 -79q-104 0 -188 52t-140 151z" />
    <glyph glyph-name="bullet" unicode="&#x2022;" horiz-adv-x="1208" 
d="M307 762q0 123 87 209t210 86q122 0 208.5 -86.5t86.5 -208.5t-87.5 -209.5t-209.5 -87.5q-123 0 -209 87t-86 210z" />
    <glyph glyph-name="paragraph" unicode="&#xb6;" 
d="M983 1479v-111h-113v-1368h-151v1368h-158v-1368h-153v784q-167 6 -267 101t-100 245q0 158 107 253.5t284 95.5h551z" />
    <glyph glyph-name="germandbls" unicode="&#xdf;" horiz-adv-x="1147" 
d="M-16 0l190 1083q33 182 155 283.5t308 101.5q175 0 289 -101t114 -255q0 -119 -70.5 -208t-189.5 -118q115 -45 174.5 -143t59.5 -240q0 -191 -111.5 -317.5t-279.5 -126.5q-51 0 -105.5 20.5t-116.5 63.5l39 215q33 -34 61 -49.5t56 -15.5q74 0 120 82t46 217
q0 92 -40.5 139t-139.5 69l33 193q4 -1 9 -1.5t15 -0.5q74 0 117 63t43 170q0 72 -29.5 110t-85.5 38q-66 0 -103 -45.5t-55 -149.5l-190 -1077h-313z" />
    <glyph glyph-name="registered" unicode="&#xae;" horiz-adv-x="1706" 
d="M745 1034v-239h99q88 0 129 28t41 88q0 63 -44 93t-136 30h-89zM545 1161h323q176 0 264.5 -59.5t88.5 -177.5q0 -82 -48 -140t-133 -79l185 -369h-224l-157 338h-99v-338h-200v825zM854 1356q-127 0 -236 -44.5t-196 -131.5q-91 -91 -140 -206.5t-49 -238.5
q0 -124 46 -235.5t133 -198.5q89 -91 203 -139.5t237 -48.5q120 0 233.5 47t206.5 135q87 84 135 196t48 232q0 133 -44.5 245t-132.5 201q-90 93 -202.5 140t-241.5 47zM852 1479q154 0 290.5 -57.5t243.5 -166.5q103 -104 157 -238t54 -284q0 -152 -56 -287.5t-163 -238.5
q-107 -105 -243.5 -161t-282.5 -56q-149 0 -285 58t-243 167q-104 105 -158.5 238.5t-54.5 279.5q0 102 27 198.5t81 188.5q101 170 267 264.5t366 94.5z" />
    <glyph glyph-name="copyright" unicode="&#xa9;" horiz-adv-x="1706" 
d="M1212 897h-188q-8 70 -53 108.5t-119 38.5q-91 0 -143 -81.5t-52 -227.5q0 -147 52 -224t151 -77q73 0 117 42t53 119l193 1q-8 -139 -109 -223t-260 -84q-186 0 -293.5 118t-107.5 322q0 206 109.5 328.5t293.5 122.5q152 0 250.5 -78t105.5 -205zM854 1356
q-128 0 -239.5 -46t-198.5 -134q-89 -90 -136 -203.5t-47 -237.5q0 -125 47 -237t136 -201q88 -88 201 -135t237 -47t237.5 47t204.5 137q88 86 133.5 197t45.5 239q0 126 -46.5 238.5t-134.5 200.5q-89 89 -201 135.5t-239 46.5zM852 1479q152 0 287.5 -56t242.5 -163
q105 -105 160 -240.5t55 -286.5q0 -152 -54.5 -284t-160.5 -236q-111 -108 -248 -165.5t-282 -57.5q-147 0 -280.5 56.5t-241.5 164.5q-107 106 -163 240.5t-56 281.5q0 149 56 284.5t163 244.5q105 106 238 161.5t284 55.5z" />
    <glyph glyph-name="trademark" unicode="&#x2122;" horiz-adv-x="1706" 
d="M803 1462h196l127 -332l123 332h197v-547h-135v410l-154 -410h-61l-158 410v-410h-135v547zM207 1462h485v-112h-168v-435h-149v435h-168v112z" />
    <glyph glyph-name="acute" unicode="&#xb4;" 
d="M551 1053h-131l219 348h215z" />
    <glyph glyph-name="dieresis" unicode="&#xa8;" 
d="M297 1217q0 53 37 91t90 38q55 0 92 -37t37 -92q0 -53 -38 -90t-91 -37q-51 0 -89 38t-38 89zM635 1217q0 53 38 91t91 38q55 0 92 -37t37 -92q0 -53 -38 -90t-91 -37q-51 0 -90 38t-39 89z" />
    <glyph glyph-name="notequal" unicode="&#x2260;" horiz-adv-x="1706" 
d="M1198 1233l148 -119l-154 -192h260v-191h-389l-191 -239h580v-193h-707l-245 -309l-148 119l154 190h-252v193h377l190 239h-567v191h696z" />
    <glyph glyph-name="AE" unicode="&#xc6;" horiz-adv-x="1872" 
d="M836 545l110 612h-84l-373 -612h347zM715 1450h1163l-51 -293h-549l-49 -270h524l-53 -293h-522l-52 -299h570l-51 -295h-904l54 307h-453l-182 -307h-340z" />
    <glyph glyph-name="Oslash" unicode="&#xd8;" horiz-adv-x="1602" 
d="M340 78l-131 -150h-225l231 265q-76 100 -112.5 212.5t-36.5 245.5q0 180 60.5 338t176.5 281q105 111 246.5 170t302.5 59q116 0 217.5 -31t190.5 -94l108 123h223l-211 -235q78 -99 115 -210t37 -245q0 -178 -60 -337t-174 -282q-106 -114 -249 -174.5t-308 -60.5
q-115 0 -214 31t-187 94zM1028 1116q-47 32 -95 48t-99 16q-172 0 -294 -147.5t-122 -360.5q0 -55 10.5 -104.5t32.5 -94.5zM569 340q50 -34 99.5 -50t103.5 -16q165 0 286.5 150t121.5 358q0 59 -11 107.5t-34 91.5z" />
    <glyph glyph-name="infinity" unicode="&#x221e;" horiz-adv-x="1706" 
d="M942 561q45 -75 106.5 -113t139.5 -38q94 0 152.5 55.5t58.5 144.5q0 86 -54 142.5t-135 56.5q-74 0 -136 -57t-132 -191zM766 659q-46 76 -107 113t-139 37q-93 0 -152 -56.5t-59 -144.5q0 -85 54 -141.5t135 -56.5q75 0 138 58t130 191zM858 457q-69 -133 -147 -195.5
t-174 -62.5q-139 0 -235.5 117.5t-96.5 293.5q0 184 85.5 297t223.5 113q93 0 169.5 -58.5t164.5 -199.5q68 132 148 196t175 64q139 0 235.5 -118t96.5 -294q0 -183 -86 -296t-223 -113q-93 0 -168.5 56.5t-167.5 199.5z" />
    <glyph glyph-name="plusminus" unicode="&#xb1;" horiz-adv-x="1706" 
d="M254 197h1198v-199h-1198v199zM752 1223h202v-326h498v-199h-498v-325h-202v325h-498v199h498v326z" />
    <glyph glyph-name="lessequal" unicode="&#x2264;" horiz-adv-x="1706" 
d="M258 195h1192v-197h-1192v197zM1448 1241v-209l-834 -264l834 -262v-209l-1190 385v174z" />
    <glyph glyph-name="greaterequal" unicode="&#x2265;" horiz-adv-x="1706" 
d="M258 195h1192v-197h-1192v197zM260 1241l1188 -385v-174l-1188 -385v209l832 262l-832 264v209z" />
    <glyph glyph-name="yen" unicode="&#xa5;" horiz-adv-x="1356" 
d="M1448 1450l-354 -487h256l-23 -134h-334l-139 -194h438l-22 -133h-459l-88 -502h-311l86 502h-475l24 133h475l-108 194h-334l24 134h234l-275 487h343l307 -569l407 569h328z" />
    <glyph glyph-name="mu" unicode="&#xb5;" horiz-adv-x="1249" 
d="M205 1092h289l-76 -435q-15 -80 -23 -151.5t-8 -116.5q0 -93 42 -138.5t128 -45.5q100 0 155.5 82t92.5 291l90 514h289l-193 -1092h-268l18 117q-42 -78 -93.5 -114t-121.5 -36q-67 0 -119 29.5t-94 91.5l-90 -526h-286z" />
    <glyph glyph-name="partialdiff" unicode="&#x2202;" horiz-adv-x="1094" 
d="M762 662q19 99 29 188.5t10 155.5q0 100 -26 157.5t-70 57.5t-146 -73t-160 -73q-42 0 -71 30t-29 73q0 64 86.5 118t210.5 54q192 0 309 -161.5t117 -432.5q0 -339 -156.5 -560t-396.5 -221q-171 0 -282 114.5t-111 291.5q0 198 116 329.5t287 131.5q102 0 170 -43.5
t113 -136.5zM700 518q0 116 -38.5 178t-110.5 62q-101 0 -167.5 -134t-66.5 -341q0 -117 38.5 -177.5t111.5 -60.5q101 0 167 133.5t66 339.5z" />
    <glyph glyph-name="summation" unicode="&#x2211;" horiz-adv-x="1470" 
d="M66 1473h1308v-265h-878l620 -645l-622 -690h933v-266h-1386v172l698 772l-673 690v232z" />
    <glyph glyph-name="product" unicode="&#x220f;" horiz-adv-x="1612" 
d="M150 1473h1308v-1866h-344v1577h-620v-1577h-344v1866z" />
    <glyph glyph-name="pi" unicode="&#x3c0;" horiz-adv-x="1319" 
d="M1354 1092l-39 -224h-176l-154 -868h-287l152 868h-238l-151 -868h-287l152 868h-25q-55 0 -84 -31t-39 -99l-213 -1q30 200 123 277.5t311 77.5h955z" />
    <glyph glyph-name="integral" unicode="&#x222b;" horiz-adv-x="1186" 
d="M342 -252q102 0 121 639q3 136 6 211q16 508 123 732t328 224q98 0 157.5 -49t59.5 -129q0 -60 -38 -96.5t-100 -36.5q-46 0 -77 24t-41 68q-5 20 -7 54q-3 46 -30 47q-99 0 -119 -633l-6 -178q-11 -296 -31 -444.5t-59 -250.5q-56 -148 -148.5 -225.5t-214.5 -77.5
q-96 0 -156.5 49t-60.5 127q0 62 39 99t105 37q50 0 85 -31.5t35 -71.5q0 -58 6 -73t23 -15z" />
    <glyph glyph-name="ordfeminine" unicode="&#xaa;" horiz-adv-x="848" 
d="M514 1253q-18 35 -43.5 51.5t-60.5 16.5q-72 0 -122 -69t-50 -173q0 -54 28.5 -87.5t75.5 -33.5q56 0 95.5 44t54.5 124zM786 1452l-118 -631h-234l12 66q-54 -47 -103 -68.5t-99 -21.5q-105 0 -169.5 75.5t-64.5 200.5q0 174 94.5 288t237.5 114q57 0 103.5 -20.5
t95.5 -65.5l10 63h235z" />
    <glyph glyph-name="ordmasculine" unicode="&#xba;" horiz-adv-x="840" 
d="M6 1108q0 158 117 266.5t289 108.5q153 0 250.5 -87.5t97.5 -226.5q0 -158 -115.5 -267t-282.5 -109q-159 0 -257.5 87t-98.5 228zM401 1317q-61 0 -107 -61.5t-46 -147.5q0 -67 33 -108.5t86 -41.5q62 0 106.5 60.5t44.5 148.5q0 68 -32 109t-85 41z" />
    <glyph glyph-name="Omega" unicode="&#x3a9;" horiz-adv-x="1575" 
d="M1227 256h291v-256h-609v291q126 86 192 217.5t66 296.5q0 203 -101.5 319.5t-279.5 116.5q-177 0 -278.5 -116.5t-101.5 -319.5q0 -164 66 -296.5t192 -217.5v-291h-609v256h291q-126 121 -187 260t-61 303q0 313 188 501.5t500 188.5q313 0 501 -188.5t188 -501.5
q0 -164 -61 -303t-187 -260z" />
    <glyph glyph-name="ae" unicode="&#xe6;" horiz-adv-x="1569" 
d="M522 203l35 200h-27q-126 0 -199 -39t-73 -106q0 -43 31 -70.5t80 -27.5q31 0 67.5 10t85.5 33zM842 537h377q1 9 1.5 18.5t0.5 17.5q0 69 -45 113.5t-115 44.5q-74 0 -135 -53.5t-84 -140.5zM657 84q-96 -66 -183 -95.5t-183 -29.5q-140 0 -227 70.5t-87 183.5
q0 158 152 237.5t451 79.5q0 5 1 16q3 37 3 48q0 68 -39.5 98.5t-126.5 30.5q-66 0 -140 -17t-153 -51l33 228q73 30 140.5 44.5t133.5 14.5q91 0 167 -25.5t144 -78.5q69 52 149 78t173 26q180 0 288.5 -112t108.5 -300q0 -25 -1 -45t-3 -41l-18 -32h-623v-15
q0 -100 59.5 -154.5t170.5 -54.5q68 0 150.5 23t178.5 68l-39 -238q-84 -41 -171 -61.5t-181 -20.5q-97 0 -176 30t-152 95z" />
    <glyph glyph-name="oslash" unicode="&#xf8;" horiz-adv-x="1118" 
d="M307 334l336 377q-28 18 -55.5 27.5t-55.5 9.5q-97 0 -166 -93.5t-69 -224.5q0 -18 2.5 -40.5t7.5 -55.5zM711 586l-336 -377q28 -19 54.5 -28t53.5 -9q98 0 167 93t69 224q0 25 -2 48.5t-6 48.5zM-61 -72l170 191q-51 64 -77 138.5t-26 156.5q0 224 157.5 377t391.5 153
q65 0 123.5 -14t112.5 -43l73 86h199l-156 -178q53 -63 80 -134.5t27 -150.5q0 -238 -154 -393.5t-393 -155.5q-72 0 -131 15.5t-113 48.5l-86 -97h-198z" />
    <glyph glyph-name="questiondown" unicode="&#xbf;" horiz-adv-x="1010" 
d="M866 1042l-80 -450q-52 11 -89 15.5t-66 4.5q-107 0 -170.5 -50t-63.5 -134q0 -71 61 -119.5t154 -48.5q52 0 109 18t127 56l-45 -307q-76 -26 -143.5 -39t-129.5 -13q-203 0 -330.5 121t-127.5 310q0 191 125 317.5t319 126.5q19 0 28.5 -0.5t18.5 -1.5l25 141z
M928 1329q0 -70 -49.5 -120t-118.5 -50q-73 0 -122.5 49t-49.5 121q0 70 50 119t122 49q68 0 118 -50t50 -118z" />
    <glyph glyph-name="exclamdown" unicode="&#xa1;" horiz-adv-x="649" 
d="M637 1329q0 -70 -49.5 -120t-118.5 -50q-73 0 -122.5 49t-49.5 121q0 70 50 119t122 49q68 0 118 -50t50 -118zM512 1049l-82 -934l-424 -140l326 1014z" />
    <glyph glyph-name="logicalnot" unicode="&#xac;" horiz-adv-x="1706" 
d="M254 864h1198v-502h-199v306h-999v196z" />
    <glyph glyph-name="radical" unicode="&#x221a;" horiz-adv-x="1346" 
d="M1141 1694h207v-129h-103l-592 -1606h-100l-311 858l-140 -51l-30 113l331 116l236 -661z" />
    <glyph glyph-name="florin" unicode="&#x192;" horiz-adv-x="1180" 
d="M745 678l-63 -531q-32 -265 -153 -401.5t-324 -136.5q-36 0 -76.5 5t-89.5 15l53 285q20 -4 41.5 -6t46.5 -2q83 0 132 70t65 210l55 492h-305l39 227h293q38 297 155 444.5t314 147.5q57 0 108 -9t99 -28l-43 -248q-36 9 -63.5 13t-49.5 4q-94 0 -144 -78.5t-63 -245.5
h295l-39 -227h-283z" />
    <glyph glyph-name="approxequal" unicode="&#x2248;" horiz-adv-x="1706" 
d="M1530 596v-219q-106 -72 -198 -105.5t-181 -33.5q-95 0 -286.5 66.5t-301.5 66.5q-84 0 -174.5 -37t-210.5 -121v219q111 73 206.5 108t180.5 35q124 0 315.5 -65.5t274.5 -65.5q86 0 174 35.5t201 116.5zM1530 1008v-220q-106 -71 -196.5 -104t-180.5 -33
q-94 0 -286 65.5t-304 65.5q-82 0 -170 -35t-215 -122v219q107 71 204 107t183 36q125 0 316.5 -65.5t273.5 -65.5q84 0 171 35t204 117z" />
    <glyph glyph-name="Delta" unicode="&#x2206;" horiz-adv-x="1427" 
d="M713 1110l-326 -854h653zM563 1473h301l563 -1473h-1427z" />
    <glyph glyph-name="guillemotleft" unicode="&#xab;" horiz-adv-x="1020" 
d="M856 137h-242l-196 314l274 313h242l-266 -313zM461 137h-240l-198 314l274 313h242l-267 -313z" />
    <glyph glyph-name="guillemotright" unicode="&#xbb;" horiz-adv-x="1020" 
d="M68 764h239l199 -313l-275 -314h-241l266 314zM461 764h241l199 -313l-274 -314h-242l266 314z" />
    <glyph glyph-name="ellipsis" unicode="&#x2026;" horiz-adv-x="2048" 
d="M88 145q0 70 50 120t120 50q72 0 121 -48.5t49 -121.5q0 -70 -49.5 -120t-120.5 -50q-69 0 -119.5 51t-50.5 119zM770 145q0 70 50 120t120 50q72 0 121 -48.5t49 -121.5q0 -70 -49.5 -120t-120.5 -50q-69 0 -119.5 51t-50.5 119zM1454 145q0 70 50 120t120 50
q72 0 121 -48.5t49 -121.5q0 -70 -49.5 -120t-120.5 -50q-69 0 -119.5 51t-50.5 119z" />
    <glyph glyph-name="nonbreakingspace" unicode="&#xa0;" horiz-adv-x="1180" 
 />
    <glyph glyph-name="Agrave" unicode="&#xc0;" horiz-adv-x="1356" 
d="M846 451l-117 395l-258 -395h375zM184 0h-338l1000 1497h33l446 -1497h-350l-60 213h-596zM1026 1608h-117l-301 348h213z" />
    <glyph glyph-name="Atilde" unicode="&#xc3;" horiz-adv-x="1356" 
d="M846 451l-117 395l-258 -395h375zM184 0h-338l1000 1497h33l446 -1497h-350l-60 213h-596zM1212 1901q-29 -110 -80.5 -161.5t-130.5 -51.5q-20 0 -40 3t-40 9l-57 18q-18 5 -32.5 7.5t-24.5 3.5q-34 0 -57.5 -20.5t-35.5 -59.5h-106q29 110 81.5 163.5t131.5 53.5
q19 0 40 -3.5t44 -9.5l57 -18q15 -5 28 -7.5t23 -2.5q34 0 57.5 19t35.5 57h106z" />
    <glyph glyph-name="Otilde" unicode="&#xd5;" horiz-adv-x="1602" 
d="M68 659q0 177 61 333t178 280q105 111 244.5 169t300.5 58q302 0 491 -194t189 -504q0 -174 -60 -331t-174 -280q-108 -116 -250 -176.5t-305 -60.5q-300 0 -487.5 196t-187.5 510zM825 1180q-163 0 -284 -148t-121 -356q0 -179 97.5 -289.5t254.5 -110.5
q165 0 286.5 148t121.5 356q0 177 -99.5 288.5t-255.5 111.5zM1259 1901q-29 -110 -80.5 -161.5t-130.5 -51.5q-20 0 -40 3t-40 9l-57 18q-18 5 -32.5 7.5t-24.5 3.5q-34 0 -57.5 -20.5t-35.5 -59.5h-106q29 110 81.5 163.5t131.5 53.5q19 0 40 -3.5t44 -9.5l57 -18
q15 -5 28 -7.5t23 -2.5q34 0 57.5 19t35.5 57h106z" />
    <glyph glyph-name="OE" unicode="&#x152;" horiz-adv-x="1896" 
d="M815 295l152 862h-111q-188 0 -313 -138t-125 -343q0 -169 99 -275t255 -106h43zM1901 1450l-52 -293h-549l-47 -270h523l-52 -293h-522l-53 -299h571l-53 -295h-903q-314 0 -505 183t-191 481q0 176 66.5 329t191.5 264q110 99 246 146t313 47h1016z" />
    <glyph glyph-name="oe" unicode="&#x153;" horiz-adv-x="1716" 
d="M813 74q-67 -55 -156.5 -85t-187.5 -30q-202 0 -331.5 126.5t-129.5 324.5q0 226 156.5 380t386.5 154q95 0 175 -29t146 -88q74 59 156.5 88t173.5 29q187 0 299.5 -112.5t112.5 -301.5q0 -25 -1 -45t-3 -41l-21 -32h-628v-15q0 -100 60.5 -154.5t172.5 -54.5
q68 0 151 22.5t181 68.5l-39 -238q-86 -42 -173 -63t-171 -21q-100 0 -183 29.5t-147 87.5zM985 537h383q1 8 1.5 17.5t0.5 18.5q0 69 -45.5 113.5t-116.5 44.5q-74 0 -136 -53.5t-87 -140.5zM539 713q-84 0 -146.5 -89t-62.5 -214q0 -98 46 -160t118 -62q85 0 144.5 89
t59.5 219q0 96 -44.5 156.5t-114.5 60.5z" />
    <glyph glyph-name="endash" unicode="&#x2013;" 
d="M-66 346l37 209h1020l-35 -209h-1022z" />
    <glyph glyph-name="emdash" unicode="&#x2014;" horiz-adv-x="2048" 
d="M-18 346l36 209h2048l-36 -209h-2048z" />
    <glyph glyph-name="quotedblleft" unicode="&#x201c;" horiz-adv-x="991" 
d="M1022 1450l-217 -559h-283l248 559h252zM621 1450l-218 -559h-282l248 559h252z" />
    <glyph glyph-name="quotedblright" unicode="&#x201d;" horiz-adv-x="991" 
d="M1022 1450l-217 -559h-283l248 559h252zM621 1450l-218 -559h-282l248 559h252z" />
    <glyph glyph-name="quoteleft" unicode="&#x2018;" horiz-adv-x="590" 
d="M614 1450l-215 -559h-284l247 559h252z" />
    <glyph glyph-name="quoteright" unicode="&#x2019;" horiz-adv-x="590" 
d="M614 1450l-215 -559h-284l247 559h252z" />
    <glyph glyph-name="divide" unicode="&#xf7;" horiz-adv-x="1706" 
d="M854 369q62 0 107 -45t45 -107q0 -61 -45 -105t-107 -44q-63 0 -107.5 43t-44.5 106t44.5 107.5t107.5 44.5zM254 711h1198v-199h-1198v199zM854 1155q62 0 107 -44.5t45 -106.5q0 -63 -44.5 -107.5t-107.5 -44.5t-107.5 44.5t-44.5 107.5t44.5 107t107.5 44z" />
    <glyph glyph-name="lozenge" unicode="&#x25ca;" horiz-adv-x="1012" 
d="M506 1409l-385 -817l385 -825l385 825zM506 1653l500 -1061l-500 -1069l-500 1069z" />
    <glyph glyph-name="ydieresis" unicode="&#xff;" horiz-adv-x="915" 
d="M-6 -436l235 481l-264 856h320l139 -485l215 485h281l-644 -1337h-282zM244 1217q0 53 37 91t90 38q55 0 92 -37t37 -92q0 -53 -38 -90t-91 -37q-51 0 -89 38t-38 89zM582 1217q0 53 38 91t91 38q55 0 92 -37t37 -92q0 -53 -38 -90t-91 -37q-51 0 -90 38t-39 89z" />
    <glyph glyph-name="Ydieresis" unicode="&#x178;" horiz-adv-x="1262" 
d="M690 0h-340l111 635l-457 815h369l297 -551l397 551h348l-620 -850zM526 1772q0 53 37 91t90 38q55 0 92 -37t37 -92q0 -53 -38 -90t-91 -37q-51 0 -89 38t-38 89zM864 1772q0 53 38 91t91 38q55 0 92 -37t37 -92q0 -53 -38 -90t-91 -37q-51 0 -90 38t-39 89z" />
    <glyph glyph-name="fraction" unicode="&#x2215;" horiz-adv-x="342" 
d="M-342 -47l870 1544h154l-870 -1544h-154z" />
    <glyph glyph-name="currency" unicode="&#xa4;" horiz-adv-x="1241" 
d="M623 1161q-113 0 -195 -82t-82 -194q0 -114 81 -194.5t196 -80.5q113 0 194.5 80.5t81.5 194.5q0 112 -81.5 194t-194.5 82zM172 1438l205 -203q54 39 114 58.5t130 19.5t131.5 -19.5t115.5 -58.5l203 203l105 -107l-203 -205q38 -53 57 -113.5t19 -127.5t-19 -127
t-57 -115l203 -205l-105 -104l-203 203q-54 -40 -115 -59t-130 -19q-72 0 -132.5 19t-113.5 59l-205 -203l-104 104l202 205q-38 54 -56.5 113.5t-18.5 128.5q0 67 18.5 127.5t56.5 113.5l-202 205z" />
    <glyph glyph-name="guilsinglleft" unicode="&#x2039;" horiz-adv-x="621" 
d="M467 137h-240l-198 314l274 313h242l-266 -313z" />
    <glyph glyph-name="guilsinglright" unicode="&#x203a;" horiz-adv-x="621" 
d="M66 764h241l199 -313l-277 -314h-239l266 314z" />
    <glyph glyph-name="fi" unicode="&#xf001;" horiz-adv-x="1180" 
d="M823 1243q0 69 48.5 117.5t117.5 48.5q70 0 118 -48t48 -118q0 -69 -48.5 -117.5t-117.5 -48.5q-68 0 -117 49t-49 117zM623 0l159 901h318l-160 -901h-317zM37 0l119 672h-176l38 229h177l30 168q37 208 131 312t244 104q34 0 76 -7.5t110 -27.5l-49 -276q-22 5 -39 8.5
t-26 3.5q-60 0 -92 -34.5t-45 -113.5l-23 -137h215l-41 -229h-215l-119 -672h-315z" />
    <glyph glyph-name="fl" unicode="&#xf002;" horiz-adv-x="1180" 
d="M623 0l260 1470h317l-258 -1470h-319zM37 0l119 672h-176l38 229h177l30 168q37 208 131 312t244 104q34 0 76 -7.5t110 -27.5l-49 -276q-22 5 -39 8.5t-26 3.5q-60 0 -92 -34.5t-45 -113.5l-23 -137h215l-41 -229h-215l-119 -672h-315z" />
    <glyph glyph-name="daggerdbl" unicode="&#x2021;" horiz-adv-x="1042" 
d="M174 -252l170 430l-358 -74l53 228l323 -76v356l150 334l-360 -74l51 232l321 -80l17 426h237l-168 -426l359 70l-49 -230l-328 80l2 -346l-152 -342l359 70l-47 -228l-326 78l-18 -428h-236z" />
    <glyph glyph-name="periodcentered" unicode="&#xb7;" horiz-adv-x="590" 
d="M129 725q0 70 50 120t120 50q72 0 121 -49t49 -121q0 -70 -49.5 -120t-120.5 -50q-68 0 -119 51t-51 119z" />
    <glyph glyph-name="quotesinglbase" unicode="&#x201a;" horiz-adv-x="590" 
d="M422 252l-215 -561h-285l248 561h252z" />
    <glyph glyph-name="quotedblbase" unicode="&#x201e;" horiz-adv-x="991" 
d="M817 252l-215 -561h-285l248 561h252zM416 252l-217 -561h-283l248 561h252z" />
    <glyph glyph-name="perthousand" unicode="&#x2030;" horiz-adv-x="2431" 
d="M1870 319q0 -65 47 -113t111 -48t111.5 47.5t47.5 113.5q0 67 -47 115.5t-112 48.5t-111.5 -48.5t-46.5 -115.5zM1659 322q0 152 108 260t261 108t260.5 -107.5t107.5 -260.5t-108 -261t-260 -108q-153 0 -261 108t-108 261zM1030 319q0 -65 47 -113t111 -48t112 47.5
t48 113.5q0 67 -47.5 115.5t-112.5 48.5q-64 0 -111 -48.5t-47 -115.5zM819 322q0 152 108.5 260t260.5 108q153 0 260.5 -107.5t107.5 -260.5t-107.5 -261t-260.5 -108q-152 0 -260.5 108t-108.5 261zM1182 1497h153l-923 -1544h-156zM244 1128q0 -65 48 -113t111 -48
q65 0 111.5 47.5t46.5 113.5q0 68 -46.5 116t-111.5 48q-64 0 -111.5 -48.5t-47.5 -115.5zM35 1128q0 153 108 261t260 108q154 0 261.5 -107.5t107.5 -261.5q0 -152 -108 -259t-261 -107q-152 0 -260 107t-108 259z" />
    <glyph glyph-name="Acircumflex" unicode="&#xc2;" horiz-adv-x="1356" 
d="M846 451l-117 395l-258 -395h375zM184 0h-338l1000 1497h33l446 -1497h-350l-60 213h-596zM1167 1608h-119l-129 200l-217 -200h-131l254 348h213z" />
    <glyph glyph-name="Ecircumflex" unicode="&#xca;" horiz-adv-x="1165" 
d="M35 0l256 1450h880l-51 -293h-549l-47 -270h523l-54 -293h-522l-51 -299h569l-51 -295h-903zM1065 1608h-119l-129 200l-217 -200h-131l254 348h213z" />
    <glyph glyph-name="Aacute" unicode="&#xc1;" horiz-adv-x="1356" 
d="M846 451l-117 395l-258 -395h375zM184 0h-338l1000 1497h33l446 -1497h-350l-60 213h-596zM866 1608h-131l219 348h215z" />
    <glyph glyph-name="Edieresis" unicode="&#xcb;" horiz-adv-x="1165" 
d="M35 0l256 1450h880l-51 -293h-549l-47 -270h523l-54 -293h-522l-51 -299h569l-51 -295h-903zM510 1772q0 53 37 91t90 38q55 0 92 -37t37 -92q0 -53 -38 -90t-91 -37q-51 0 -89 38t-38 89zM848 1772q0 53 38 91t91 38q55 0 92 -37t37 -92q0 -53 -38 -90t-91 -37
q-51 0 -90 38t-39 89z" />
    <glyph glyph-name="Egrave" unicode="&#xc8;" horiz-adv-x="1165" 
d="M35 0l256 1450h880l-51 -293h-549l-47 -270h523l-54 -293h-522l-51 -299h569l-51 -295h-903zM924 1608h-117l-301 348h213z" />
    <glyph glyph-name="Iacute" unicode="&#xcd;" horiz-adv-x="682" 
d="M39 0l256 1450h344l-256 -1450h-344zM492 1608h-131l219 348h215z" />
    <glyph glyph-name="Icircumflex" unicode="&#xce;" horiz-adv-x="682" 
d="M39 0l256 1450h344l-256 -1450h-344zM793 1608h-119l-129 200l-217 -200h-131l254 348h213z" />
    <glyph glyph-name="Idieresis" unicode="&#xcf;" horiz-adv-x="682" 
d="M39 0l256 1450h344l-256 -1450h-344zM238 1772q0 53 37 91t90 38q55 0 92 -37t37 -92q0 -53 -38 -90t-91 -37q-51 0 -89 38t-38 89zM576 1772q0 53 38 91t91 38q55 0 92 -37t37 -92q0 -53 -38 -90t-91 -37q-51 0 -90 38t-39 89z" />
    <glyph glyph-name="Igrave" unicode="&#xcc;" horiz-adv-x="682" 
d="M39 0l256 1450h344l-256 -1450h-344zM652 1608h-117l-301 348h213z" />
    <glyph glyph-name="Oacute" unicode="&#xd3;" horiz-adv-x="1602" 
d="M68 659q0 177 61 333t178 280q105 111 244.5 169t300.5 58q302 0 491 -194t189 -504q0 -174 -60 -331t-174 -280q-108 -116 -250 -176.5t-305 -60.5q-300 0 -487.5 196t-187.5 510zM825 1180q-163 0 -284 -148t-121 -356q0 -179 97.5 -289.5t254.5 -110.5
q165 0 286.5 148t121.5 356q0 177 -99.5 288.5t-255.5 111.5zM913 1608h-131l219 348h215z" />
    <glyph glyph-name="Ocircumflex" unicode="&#xd4;" horiz-adv-x="1602" 
d="M68 659q0 177 61 333t178 280q105 111 244.5 169t300.5 58q302 0 491 -194t189 -504q0 -174 -60 -331t-174 -280q-108 -116 -250 -176.5t-305 -60.5q-300 0 -487.5 196t-187.5 510zM825 1180q-163 0 -284 -148t-121 -356q0 -179 97.5 -289.5t254.5 -110.5
q165 0 286.5 148t121.5 356q0 177 -99.5 288.5t-255.5 111.5zM1214 1608h-119l-129 200l-217 -200h-131l254 348h213z" />
    <glyph glyph-name="apple" unicode="&#xf000;" horiz-adv-x="1618" 
d="M836 1216q-1 6 -1.5 14t-0.5 23q0 124 95 229.5t236 131.5q1 -10 1.5 -23t0.5 -39q0 -131 -103.5 -234.5t-203.5 -103.5h-8q-3 0 -7.5 1t-8.5 1zM1505 403q-114 -247 -205 -342.5t-204 -95.5q-50 0 -131.5 33t-122.5 33q-45 0 -131 -33t-127 -33q-64 0 -128.5 44
t-129.5 132q-102 140 -157.5 295.5t-55.5 300.5q0 219 125 356.5t323 137.5q68 0 155 -34t124 -34q34 0 121.5 35t152.5 35q110 0 198 -40t161 -124q-102 -65 -151.5 -145.5t-49.5 -182.5q0 -113 60 -200t173 -138z" />
    <glyph glyph-name="Ograve" unicode="&#xd2;" horiz-adv-x="1602" 
d="M68 659q0 177 61 333t178 280q105 111 244.5 169t300.5 58q302 0 491 -194t189 -504q0 -174 -60 -331t-174 -280q-108 -116 -250 -176.5t-305 -60.5q-300 0 -487.5 196t-187.5 510zM825 1180q-163 0 -284 -148t-121 -356q0 -179 97.5 -289.5t254.5 -110.5
q165 0 286.5 148t121.5 356q0 177 -99.5 288.5t-255.5 111.5zM1073 1608h-117l-301 348h213z" />
    <glyph glyph-name="Uacute" unicode="&#xda;" horiz-adv-x="1522" 
d="M141 692l133 758h340l-137 -778q-8 -46 -12 -86t-4 -66q0 -127 65 -195.5t187 -68.5q149 0 229.5 98.5t122.5 341.5l133 754h301l-143 -819q-64 -359 -219 -519.5t-435 -160.5q-278 0 -431.5 136.5t-153.5 381.5q0 45 6 101.5t18 121.5zM903 1608h-131l219 348h215z" />
    <glyph glyph-name="Ucircumflex" unicode="&#xdb;" horiz-adv-x="1522" 
d="M141 692l133 758h340l-137 -778q-8 -46 -12 -86t-4 -66q0 -127 65 -195.5t187 -68.5q149 0 229.5 98.5t122.5 341.5l133 754h301l-143 -819q-64 -359 -219 -519.5t-435 -160.5q-278 0 -431.5 136.5t-153.5 381.5q0 45 6 101.5t18 121.5zM1204 1608h-119l-129 200
l-217 -200h-131l254 348h213z" />
    <glyph glyph-name="Ugrave" unicode="&#xd9;" horiz-adv-x="1522" 
d="M141 692l133 758h340l-137 -778q-8 -46 -12 -86t-4 -66q0 -127 65 -195.5t187 -68.5q149 0 229.5 98.5t122.5 341.5l133 754h301l-143 -819q-64 -359 -219 -519.5t-435 -160.5q-278 0 -431.5 136.5t-153.5 381.5q0 45 6 101.5t18 121.5zM1063 1608h-117l-301 348h213z
" />
    <glyph glyph-name="dotlessi" unicode="&#x131;" horiz-adv-x="541" 
d="M-16 0l157 901h320l-160 -901h-317z" />
    <glyph glyph-name="circumflex" unicode="&#x2c6;" 
d="M852 1053h-119l-129 200l-217 -200h-131l254 348h213z" />
    <glyph glyph-name="tilde" unicode="&#x2dc;" 
d="M897 1346q-29 -110 -80.5 -161.5t-130.5 -51.5q-20 0 -40 3t-40 9l-57 18q-18 5 -32.5 7.5t-24.5 3.5q-34 0 -57.5 -20.5t-35.5 -59.5h-106q29 110 81.5 163.5t131.5 53.5q19 0 40 -3.5t44 -9.5l57 -18q15 -5 28 -7.5t23 -2.5q34 0 57.5 19t35.5 57h106z" />
    <glyph glyph-name="macron" unicode="&#xaf;" 
d="M303 1143l31 147h553l-31 -147h-553z" />
    <glyph glyph-name="breve" unicode="&#x2d8;" 
d="M326 1372h112v-6q0 -73 35 -105t115 -32q82 0 137 35t86 108h117q-42 -145 -131 -218t-226 -73q-125 0 -186 61.5t-61 186.5q0 18 0.5 27t1.5 16z" />
    <glyph glyph-name="dotaccent" unicode="&#x2d9;" 
d="M436 1219q0 65 47 111t113 46t112 -45.5t46 -111.5t-46 -112t-112 -46t-113 46t-47 112z" />
    <glyph glyph-name="ring" unicode="&#x2da;" 
d="M479 1292q0 -56 39.5 -95.5t95.5 -39.5q55 0 94.5 40t39.5 95q0 58 -38.5 96.5t-95.5 38.5t-96 -38.5t-39 -96.5zM356 1294q0 107 75 181.5t183 74.5t183 -74.5t75 -181.5q0 -108 -74.5 -183t-183.5 -75q-108 0 -183 75t-75 183z" />
    <glyph glyph-name="cedilla" unicode="&#xb8;" 
d="M98 -426l43 111q67 -23 124 -35t100 -12q54 0 86 24t32 66q0 41 -35.5 58t-125.5 17h-39l69 197h90l-34 -94h8q111 0 169 -43.5t58 -126.5q0 -101 -66 -158t-184 -57q-55 0 -120.5 11.5t-174.5 41.5z" />
    <glyph glyph-name="hungarumlaut" unicode="&#x2dd;" 
d="M815 1403h189l-271 -348h-104zM526 1403h187l-232 -348h-104z" />
    <glyph glyph-name="ogonek" unicode="&#x2db;" 
d="M440 0q-68 -59 -98.5 -109t-30.5 -104q0 -44 20 -62t68 -18h109l-35 -156h-78q-118 0 -173.5 44t-55.5 137q0 66 45 130.5t141 137.5h88z" />
    <glyph glyph-name="caron" unicode="&#x2c7;" 
d="M326 1401h116l131 -199l218 199h131l-256 -348h-211z" />
    <glyph glyph-name="Lslash" unicode="&#x141;" horiz-adv-x="1085" 
d="M47 0l90 524l-186 -104l45 242l184 106l123 682h348l-94 -524l326 186l-45 -248l-320 -186l-69 -383h565l-53 -295h-914z" />
    <glyph glyph-name="lslash" unicode="&#x142;" horiz-adv-x="563" 
d="M0 0l96 578l-135 -78l31 182l137 78l125 710h317l-100 -569l133 76l-35 -180l-127 -78l-129 -719h-313z" />
    <glyph glyph-name="Scaron" unicode="&#x160;" horiz-adv-x="1118" 
d="M49 55l62 342q89 -72 175.5 -108.5t168.5 -36.5q89 0 143.5 46t54.5 120q0 54 -30.5 97.5t-122.5 105.5l-99 65q-136 91 -193.5 180t-57.5 203q0 187 130.5 308.5t335.5 121.5q102 0 202 -29.5t206 -91.5l-109 -268q-90 59 -164.5 86t-146.5 27q-60 0 -100.5 -36
t-40.5 -89q0 -40 22.5 -74t69.5 -66l141 -94q148 -99 214.5 -199.5t66.5 -222.5q0 -217 -142.5 -353t-373.5 -136q-101 0 -203.5 25.5t-208.5 76.5zM484 1956h116l131 -199l218 199h131l-256 -348h-211z" />
    <glyph glyph-name="scaron" unicode="&#x161;" horiz-adv-x="854" 
d="M37 262q88 -51 162.5 -76.5t132.5 -25.5q47 0 77.5 22.5t30.5 55.5q0 28 -21.5 49t-94.5 55l-60 29q-103 49 -155 119.5t-52 160.5q0 126 102.5 208.5t264.5 82.5q94 0 183.5 -27.5t178.5 -85.5l-84 -182q-74 46 -139.5 70t-116.5 24q-49 0 -79.5 -21.5t-30.5 -55.5
q0 -31 26 -54t111 -59l55 -23q92 -39 143.5 -110t51.5 -158q0 -134 -105.5 -217.5t-277.5 -83.5q-103 0 -199.5 27.5t-185.5 83.5zM242 1401h116l131 -199l218 199h131l-256 -348h-211z" />
    <glyph glyph-name="Zcaron" unicode="&#x17d;" horiz-adv-x="1360" 
d="M-70 0l899 1161h-725l62 289h1259l-843 -1143h675l-49 -307h-1278zM605 1956h116l131 -199l218 199h131l-256 -348h-211z" />
    <glyph glyph-name="zcaron" unicode="&#x17e;" horiz-adv-x="920" 
d="M-98 0l477 670h-356l67 231h805l-469 -670h387l-63 -231h-848zM275 1401h116l131 -199l218 199h131l-256 -348h-211z" />
    <glyph glyph-name="brokenbar" unicode="&#xa6;" 
d="M410 408h206v-758h-206v758zM410 1432h206v-758h-206v758z" />
    <glyph glyph-name="Eth" unicode="&#xd0;" horiz-adv-x="1503" 
d="M442 307h103q248 0 396.5 128t148.5 337q0 183 -116.5 277t-344.5 94h-41l-49 -277h272l-35 -198h-272zM47 0l119 668h-170l35 198h170l102 584h301q202 0 336.5 -31.5t230.5 -99.5q130 -92 198.5 -228t68.5 -305q0 -182 -76.5 -336.5t-220.5 -263.5
q-129 -97 -298.5 -141.5t-424.5 -44.5h-371z" />
    <glyph glyph-name="eth" unicode="&#xf0;" horiz-adv-x="1118" 
d="M663 918q-19 46 -43 93t-53 95l-260 -117l-53 121l240 107l-48.5 68.5l-52.5 70.5l195 137q36 -34 74 -76t77 -90l246 109l51 -121l-221 -98q104 -157 157.5 -319t53.5 -318q0 -271 -156 -446t-393 -175q-210 0 -340.5 124.5t-130.5 324.5q0 221 151.5 378.5t358.5 157.5
q39 0 75.5 -6.5t71.5 -19.5zM535 707q-83 0 -144 -86.5t-61 -208.5q0 -97 44.5 -157t114.5 -60q84 0 142.5 86t58.5 213q0 95 -43 154t-112 59z" />
    <glyph glyph-name="Yacute" unicode="&#xdd;" horiz-adv-x="1262" 
d="M690 0h-340l111 635l-457 815h369l297 -551l397 551h348l-620 -850zM780 1608h-131l219 348h215z" />
    <glyph glyph-name="yacute" unicode="&#xfd;" horiz-adv-x="915" 
d="M-6 -436l235 481l-264 856h320l139 -485l215 485h281l-644 -1337h-282zM498 1053h-131l219 348h215z" />
    <glyph glyph-name="Thorn" unicode="&#xde;" horiz-adv-x="1223" 
d="M35 0l256 1450h340l-47 -260h61q216 0 358 -129t142 -326q0 -217 -163.5 -346t-444.5 -129h-115l-47 -260h-340zM537 905l-70 -385q18 -1 36.5 -1.5t45.5 -0.5q117 0 188.5 58.5t71.5 152.5q0 86 -59 132t-168 46q-18 0 -27.5 -0.5t-17.5 -1.5z" />
    <glyph glyph-name="thorn" unicode="&#xfe;" horiz-adv-x="1126" 
d="M406 612l-60 -329q48 -45 87 -65.5t75 -20.5q88 0 147.5 97.5t59.5 246.5q0 74 -36 119t-95 45q-41 0 -84.5 -23t-93.5 -70zM242 1470h319l-123 -663q72 67 137 98t134 31q138 0 223.5 -108.5t85.5 -286.5q0 -245 -123 -414.5t-297 -169.5q-78 0 -151.5 35t-133.5 100
l-94 -528h-313z" />
    <glyph glyph-name="minus" unicode="&#x2212;" horiz-adv-x="1706" 
d="M254 713h1198v-203h-1198v203z" />
    <glyph glyph-name="multiply" unicode="&#xd7;" horiz-adv-x="1706" 
d="M416 1202l450 -450l451 450l141 -139l-450 -453l450 -450l-141 -140l-451 451l-450 -451l-140 140l451 450l-451 453z" />
    <glyph glyph-name="onesuperior" unicode="&#xb9;" horiz-adv-x="778" 
d="M426 580h-211l139 710h-159l32 160h369z" />
    <glyph glyph-name="twosuperior" unicode="&#xb2;" horiz-adv-x="778" 
d="M31 657l348 336q57 57 88 109.5t31 91.5q0 45 -32.5 73.5t-84.5 28.5q-57 0 -93 -32t-52 -99l-162 119q67 102 147 148.5t189 46.5q134 0 220.5 -75t86.5 -190q0 -81 -54 -168t-264 -296h295l-49 -170h-627z" />
    <glyph glyph-name="threesuperior" unicode="&#xb3;" horiz-adv-x="778" 
d="M-10 684l114 143q55 -45 104.5 -66.5t98.5 -21.5q65 0 104.5 32.5t39.5 86.5q0 59 -54.5 90.5t-175.5 40.5l29 139q26 -4 47 -6t37 -2q74 0 118 28.5t44 76.5q0 38 -31 61t-82 23q-40 0 -81.5 -17.5t-88.5 -52.5l-123 111q65 64 140.5 96.5t162.5 32.5q140 0 230 -66
t90 -166q0 -68 -44 -119t-137 -90q70 -32 105 -83.5t35 -120.5q0 -124 -98.5 -203.5t-254.5 -79.5q-94 0 -173 32t-156 101z" />
    <glyph glyph-name="onequarter" unicode="&#xbc;" horiz-adv-x="1829" 
d="M1440 0l30 147h-389l21 162l491 502h205l-104 -522h86l-27 -142h-86l-29 -147h-198zM1513 289l76 342l-327 -342h251zM401 -47l871 1544h153l-870 -1544h-154zM406 639h-201l131 664h-150l29 147h352z" />
    <glyph glyph-name="onehalf" unicode="&#xbd;" horiz-adv-x="1829" 
d="M1114 74l332 313q54 52 84.5 101t30.5 85q0 42 -31.5 69.5t-79.5 27.5q-55 0 -89.5 -30.5t-49.5 -92.5l-156 110q64 95 140 138t182 43q127 0 209.5 -69.5t82.5 -174.5q0 -78 -52.5 -160.5t-250.5 -273.5h281l-45 -160h-600zM401 -47l871 1544h153l-870 -1544h-154z
M406 639h-201l131 664h-150l29 147h352z" />
    <glyph glyph-name="threequarters" unicode="&#xbe;" horiz-adv-x="1829" 
d="M1440 0l30 147h-389l21 162l491 502h205l-104 -522h86l-27 -142h-86l-29 -147h-198zM1513 289l76 342l-327 -342h251zM401 -47l871 1544h153l-870 -1544h-154zM-10 737l110 133q54 -42 100.5 -62t92.5 -20q61 0 99 31t38 80q0 56 -51 84.5t-168 36.5l29 131l24 -3
q41 -5 55 -5q71 0 112.5 27t41.5 71q0 36 -29.5 58t-76.5 22q-38 0 -78 -16.5t-84 -51.5l-119 105q61 59 133 89t156 30q134 0 219.5 -61t85.5 -154q0 -64 -42.5 -112t-129.5 -83q66 -31 99.5 -79.5t33.5 -113.5q0 -114 -94 -188t-242 -74q-91 0 -166.5 30t-148.5 95z" />
    <glyph glyph-name="franc" unicode="&#x20a3;" horiz-adv-x="1901" 
d="M35 0l256 1450h901l-53 -293h-561l-48 -270h517l-54 -293h-514l-104 -594h-340zM1110 0l159 901h285l-31 -176q57 103 119.5 153t136.5 50q22 0 44.5 -3.5t45.5 -11.5l-57 -317q-28 7 -53.5 10.5t-48.5 3.5q-94 0 -146.5 -61.5t-77.5 -200.5l-59 -348h-317z" />
    <glyph glyph-name="Gbreve" unicode="&#x11e;" horiz-adv-x="1507" 
d="M1268 43q-121 -45 -237 -67.5t-232 -22.5q-337 0 -532 189t-195 513q0 178 61 337t176 282q106 112 253.5 169.5t328.5 57.5q150 0 295 -43t284 -129l-151 -293q-105 79 -212.5 119.5t-213.5 40.5q-206 0 -338.5 -145t-132.5 -371q0 -190 104 -300t283 -110q40 0 80 3
t80 10l35 194h-261l50 285h602zM678 1927h112v-6q0 -73 35 -105t115 -32q82 0 137 35t86 108h117q-42 -145 -131 -218t-226 -73q-125 0 -186 61.5t-61 186.5q0 18 0.5 27t1.5 16z" />
    <glyph glyph-name="gbreve" unicode="&#x11f;" horiz-adv-x="1130" 
d="M63 -125q88 -45 157.5 -65.5t131.5 -20.5q107 0 163 72.5t79 242.5q-71 -63 -137.5 -92.5t-134.5 -29.5q-140 0 -225 104t-85 276q0 245 127.5 408.5t317.5 163.5q75 0 137 -29.5t127 -95.5l14 92h314l-148 -846q-47 -266 -163 -379.5t-332 -113.5q-100 0 -197.5 22.5
t-188.5 67.5zM686 618q-24 49 -58.5 73t-80.5 24q-94 0 -162 -97.5t-68 -238.5q0 -84 38.5 -134t101.5 -50q73 0 125.5 63t72.5 178zM379 1372h112v-6q0 -73 35 -105t115 -32q82 0 137 35t86 108h117q-42 -145 -131 -218t-226 -73q-125 0 -186 61.5t-61 186.5q0 18 0.5 27
t1.5 16z" />
    <glyph glyph-name="Idotaccent" unicode="&#x130;" horiz-adv-x="682" 
d="M39 0l256 1450h344l-256 -1450h-344zM377 1774q0 65 47 111t113 46t112 -45.5t46 -111.5t-46 -112t-112 -46t-113 46t-47 112z" />
    <glyph glyph-name="Scedilla" unicode="&#x15e;" horiz-adv-x="1118" 
d="M49 55l62 342q89 -72 175.5 -108.5t168.5 -36.5q89 0 143.5 46t54.5 120q0 54 -30.5 97.5t-122.5 105.5l-99 65q-136 91 -193.5 180t-57.5 203q0 187 130.5 308.5t335.5 121.5q102 0 202 -29.5t206 -91.5l-109 -268q-90 59 -164.5 86t-146.5 27q-60 0 -100.5 -36
t-40.5 -89q0 -40 22.5 -74t69.5 -66l141 -94q148 -99 214.5 -199.5t66.5 -222.5q0 -217 -142.5 -353t-373.5 -136q-101 0 -203.5 25.5t-208.5 76.5zM143 -426l43 111q67 -23 124 -35t100 -12q54 0 86 24t32 66q0 41 -35.5 58t-125.5 17h-39l69 197h90l-34 -94h8
q111 0 169 -43.5t58 -126.5q0 -101 -66 -158t-184 -57q-55 0 -120.5 11.5t-174.5 41.5z" />
    <glyph glyph-name="scedilla" unicode="&#x15f;" horiz-adv-x="854" 
d="M37 262q88 -51 162.5 -76.5t132.5 -25.5q47 0 77.5 22.5t30.5 55.5q0 28 -21.5 49t-94.5 55l-60 29q-103 49 -155 119.5t-52 160.5q0 126 102.5 208.5t264.5 82.5q94 0 183.5 -27.5t178.5 -85.5l-84 -182q-74 46 -139.5 70t-116.5 24q-49 0 -79.5 -21.5t-30.5 -55.5
q0 -31 26 -54t111 -59l55 -23q92 -39 143.5 -110t51.5 -158q0 -134 -105.5 -217.5t-277.5 -83.5q-103 0 -199.5 27.5t-185.5 83.5zM14 -426l43 111q67 -23 124 -35t100 -12q54 0 86 24t32 66q0 41 -35.5 58t-125.5 17h-39l69 197h90l-34 -94h8q111 0 169 -43.5t58 -126.5
q0 -101 -66 -158t-184 -57q-55 0 -120.5 11.5t-174.5 41.5z" />
    <glyph glyph-name="Cacute" unicode="&#x106;" horiz-adv-x="1309" 
d="M1182 117q-94 -80 -206 -122t-231 -42q-297 0 -485 196t-188 506q0 179 60.5 337.5t174.5 279.5q104 110 243 168.5t296 58.5q129 0 246.5 -43t238.5 -135l-139 -295q-82 82 -167.5 123t-174.5 41q-178 0 -303 -150.5t-125 -365.5q0 -176 97.5 -288t248.5 -112
q74 0 149.5 37.5t153.5 112.5zM868 1608h-131l219 348h215z" />
    <glyph glyph-name="cacute" unicode="&#x107;" horiz-adv-x="973" 
d="M852 575q-66 56 -129.5 83.5t-124.5 27.5q-120 0 -200.5 -71t-80.5 -173q0 -98 60 -159.5t153 -61.5q60 0 117.5 18.5t124.5 59.5l49 -256q-94 -45 -175.5 -66.5t-160.5 -21.5q-211 0 -343 126t-132 327q0 228 158.5 382t396.5 154q95 0 184 -26.5t173 -79.5zM590 1053
h-131l219 348h215z" />
    <glyph glyph-name="Ccaron" unicode="&#x10c;" horiz-adv-x="1309" 
d="M1182 117q-94 -80 -206 -122t-231 -42q-297 0 -485 196t-188 506q0 179 60.5 337.5t174.5 279.5q104 110 243 168.5t296 58.5q129 0 246.5 -43t238.5 -135l-139 -295q-82 82 -167.5 123t-174.5 41q-178 0 -303 -150.5t-125 -365.5q0 -176 97.5 -288t248.5 -112
q74 0 149.5 37.5t153.5 112.5zM643 1956h116l131 -199l218 199h131l-256 -348h-211z" />
    <glyph glyph-name="ccaron" unicode="&#x10d;" horiz-adv-x="973" 
d="M852 575q-66 56 -129.5 83.5t-124.5 27.5q-120 0 -200.5 -71t-80.5 -173q0 -98 60 -159.5t153 -61.5q60 0 117.5 18.5t124.5 59.5l49 -256q-94 -45 -175.5 -66.5t-160.5 -21.5q-211 0 -343 126t-132 327q0 228 158.5 382t396.5 154q95 0 184 -26.5t173 -79.5zM365 1401
h116l131 -199l218 199h131l-256 -348h-211z" />
    <glyph glyph-name="dcroat" unicode="&#x111;" horiz-adv-x="1147" 
d="M573 0l17 94q-63 -64 -130.5 -96.5t-137.5 -32.5q-139 0 -224.5 108.5t-85.5 286.5q0 247 127.5 410.5t317.5 163.5q79 0 143 -30.5t117 -94.5l53 301h-352l28 152h351l37 208h315l-37 -208h123l-27 -152h-123l-194 -1110h-318zM686 618q-24 49 -58.5 73t-80.5 24
q-96 0 -163 -99t-67 -247q0 -78 39 -125t103 -47q73 0 124.5 62.5t71.5 176.5z" />
    <glyph glyph-name="sfthyphen" unicode="&#xad;" horiz-adv-x="702" 
d="M12 313l49 275h529l-47 -275h-531z" />
    <glyph glyph-name="periodcentered" unicode="&#x2219;" horiz-adv-x="590" 
d="M129 725q0 70 50 120t120 50q72 0 121 -49t49 -121q0 -70 -49.5 -120t-120.5 -50q-68 0 -119 51t-51 119z" />
    </font>
</defs>
</svg>
